%TF.GenerationSoftware,KiCad,Pcbnew,7.0.9*%
%TF.CreationDate,2025-05-13T13:00:26+05:30*%
%TF.ProjectId,Kicad Tutorial,4b696361-6420-4547-9574-6f7269616c2e,1*%
%TF.SameCoordinates,Original*%
%TF.FileFunction,Legend,Bot*%
%TF.FilePolarity,Positive*%
%FSLAX46Y46*%
G04 Gerber Fmt 4.6, Leading zero omitted, Abs format (unit mm)*
G04 Created by KiCad (PCBNEW 7.0.9) date 2025-05-13 13:00:26*
%MOMM*%
%LPD*%
G01*
G04 APERTURE LIST*
%ADD10C,0.200000*%
%ADD11C,0.010000*%
G04 APERTURE END LIST*
D10*
X164587469Y-123633409D02*
X163635088Y-123633409D01*
X164777945Y-124204838D02*
X164111279Y-122204838D01*
X164111279Y-122204838D02*
X163444612Y-124204838D01*
X162777945Y-124204838D02*
X162777945Y-122204838D01*
X162777945Y-122204838D02*
X161635088Y-124204838D01*
X161635088Y-124204838D02*
X161635088Y-122204838D01*
X160777945Y-123633409D02*
X159825564Y-123633409D01*
X160968421Y-124204838D02*
X160301755Y-122204838D01*
X160301755Y-122204838D02*
X159635088Y-124204838D01*
X158968421Y-124204838D02*
X158968421Y-122204838D01*
X158968421Y-122204838D02*
X157825564Y-124204838D01*
X157825564Y-124204838D02*
X157825564Y-122204838D01*
X156873183Y-124204838D02*
X156873183Y-122204838D01*
X156873183Y-122204838D02*
X156396993Y-122204838D01*
X156396993Y-122204838D02*
X156111278Y-122300076D01*
X156111278Y-122300076D02*
X155920802Y-122490552D01*
X155920802Y-122490552D02*
X155825564Y-122681028D01*
X155825564Y-122681028D02*
X155730326Y-123061980D01*
X155730326Y-123061980D02*
X155730326Y-123347695D01*
X155730326Y-123347695D02*
X155825564Y-123728647D01*
X155825564Y-123728647D02*
X155920802Y-123919123D01*
X155920802Y-123919123D02*
X156111278Y-124109600D01*
X156111278Y-124109600D02*
X156396993Y-124204838D01*
X156396993Y-124204838D02*
X156873183Y-124204838D01*
X154873183Y-124204838D02*
X154873183Y-122204838D01*
X154873183Y-123157219D02*
X153730326Y-123157219D01*
X153730326Y-124204838D02*
X153730326Y-122204838D01*
X152873183Y-123633409D02*
X151920802Y-123633409D01*
X153063659Y-124204838D02*
X152396993Y-122204838D01*
X152396993Y-122204838D02*
X151730326Y-124204838D01*
X151063659Y-124204838D02*
X151063659Y-122204838D01*
X149920802Y-124204838D02*
X150777945Y-123061980D01*
X149920802Y-122204838D02*
X151063659Y-123347695D01*
X149063659Y-122204838D02*
X149063659Y-123823885D01*
X149063659Y-123823885D02*
X148968421Y-124014361D01*
X148968421Y-124014361D02*
X148873183Y-124109600D01*
X148873183Y-124109600D02*
X148682707Y-124204838D01*
X148682707Y-124204838D02*
X148301754Y-124204838D01*
X148301754Y-124204838D02*
X148111278Y-124109600D01*
X148111278Y-124109600D02*
X148016040Y-124014361D01*
X148016040Y-124014361D02*
X147920802Y-123823885D01*
X147920802Y-123823885D02*
X147920802Y-122204838D01*
X146968421Y-124204838D02*
X146968421Y-122204838D01*
X146968421Y-122204838D02*
X146301754Y-123633409D01*
X146301754Y-123633409D02*
X145635088Y-122204838D01*
X145635088Y-122204838D02*
X145635088Y-124204838D01*
X144777945Y-123633409D02*
X143825564Y-123633409D01*
X144968421Y-124204838D02*
X144301755Y-122204838D01*
X144301755Y-122204838D02*
X143635088Y-124204838D01*
X141825564Y-124204838D02*
X142492231Y-123252457D01*
X142968421Y-124204838D02*
X142968421Y-122204838D01*
X142968421Y-122204838D02*
X142206516Y-122204838D01*
X142206516Y-122204838D02*
X142016040Y-122300076D01*
X142016040Y-122300076D02*
X141920802Y-122395314D01*
X141920802Y-122395314D02*
X141825564Y-122585790D01*
X141825564Y-122585790D02*
X141825564Y-122871504D01*
X141825564Y-122871504D02*
X141920802Y-123061980D01*
X141920802Y-123061980D02*
X142016040Y-123157219D01*
X142016040Y-123157219D02*
X142206516Y-123252457D01*
X142206516Y-123252457D02*
X142968421Y-123252457D01*
X139539849Y-123633409D02*
X138587468Y-123633409D01*
X139730325Y-124204838D02*
X139063659Y-122204838D01*
X139063659Y-122204838D02*
X138396992Y-124204838D01*
%TO.C,REF\u002A\u002A*%
D11*
X169996184Y-95450526D02*
X165317237Y-95450526D01*
X165317237Y-94297500D01*
X169996184Y-94297500D01*
X169996184Y-95450526D01*
G36*
X169996184Y-95450526D02*
G01*
X165317237Y-95450526D01*
X165317237Y-94297500D01*
X169996184Y-94297500D01*
X169996184Y-95450526D01*
G37*
X168625938Y-88085362D02*
X168626595Y-88102572D01*
X168635141Y-88131467D01*
X168659466Y-88155972D01*
X168706918Y-88185143D01*
X168748573Y-88211793D01*
X168811989Y-88262960D01*
X168869460Y-88320400D01*
X168913422Y-88376279D01*
X168936311Y-88422762D01*
X168941919Y-88440674D01*
X168952309Y-88452970D01*
X168955812Y-88457116D01*
X168984445Y-88464083D01*
X169037141Y-88465526D01*
X169127237Y-88465526D01*
X169127237Y-88615921D01*
X168915228Y-88615921D01*
X168895433Y-88852183D01*
X168892775Y-88884483D01*
X168886583Y-88965340D01*
X168882208Y-89031135D01*
X168880030Y-89075791D01*
X168880426Y-89093233D01*
X168886185Y-89088219D01*
X168912462Y-89062083D01*
X168957888Y-89015758D01*
X169020166Y-88951647D01*
X169096997Y-88872150D01*
X169186080Y-88779669D01*
X169285119Y-88676606D01*
X169391814Y-88565362D01*
X169503865Y-88448338D01*
X169618975Y-88327936D01*
X169734844Y-88206558D01*
X169849174Y-88086604D01*
X169959666Y-87970476D01*
X170064021Y-87860575D01*
X170159940Y-87759304D01*
X170245124Y-87669063D01*
X170317275Y-87592253D01*
X170446194Y-87454539D01*
X170446781Y-87571852D01*
X170447368Y-87689164D01*
X169649286Y-88528485D01*
X168851204Y-89367807D01*
X168835250Y-89559106D01*
X168771419Y-90324528D01*
X168760138Y-90460287D01*
X168746140Y-90630154D01*
X168733220Y-90788505D01*
X168721627Y-90932228D01*
X168711607Y-91058210D01*
X168703407Y-91163338D01*
X168697274Y-91244501D01*
X168693456Y-91298586D01*
X168692199Y-91322480D01*
X168695517Y-91333429D01*
X168710429Y-91357071D01*
X168738709Y-91392703D01*
X168752358Y-91408277D01*
X168781864Y-91441948D01*
X168841399Y-91506428D01*
X168918820Y-91587768D01*
X169015632Y-91687591D01*
X169133342Y-91807520D01*
X169273454Y-91949179D01*
X169365628Y-92042136D01*
X169494119Y-92171795D01*
X169622159Y-92301079D01*
X169745900Y-92426097D01*
X169861492Y-92542959D01*
X169965085Y-92647774D01*
X170052831Y-92736652D01*
X170120881Y-92805702D01*
X170387617Y-93076757D01*
X170339169Y-93127326D01*
X170327743Y-93138719D01*
X170294035Y-93166697D01*
X170270910Y-93177895D01*
X170252805Y-93168335D01*
X170219145Y-93139649D01*
X170178792Y-93098520D01*
X170154230Y-93072542D01*
X170108423Y-93025104D01*
X170043683Y-92958566D01*
X169962295Y-92875263D01*
X169866545Y-92777528D01*
X169758721Y-92667695D01*
X169641108Y-92548096D01*
X169515992Y-92421066D01*
X169385659Y-92288938D01*
X168664831Y-91558732D01*
X168635469Y-91938017D01*
X168629068Y-92018972D01*
X168619721Y-92127793D01*
X168611290Y-92210217D01*
X168603151Y-92270575D01*
X168594679Y-92313200D01*
X168585250Y-92342424D01*
X168574237Y-92362580D01*
X168558825Y-92390750D01*
X168546143Y-92442539D01*
X168542368Y-92517152D01*
X168542368Y-92626447D01*
X168241579Y-92626447D01*
X168241579Y-92392500D01*
X167117832Y-92392500D01*
X167052875Y-92466295D01*
X167035110Y-92485511D01*
X166938831Y-92562712D01*
X166830049Y-92610239D01*
X166712262Y-92626447D01*
X166608327Y-92617854D01*
X166490770Y-92581628D01*
X166390134Y-92516882D01*
X166370520Y-92498378D01*
X166321503Y-92438475D01*
X166278497Y-92368693D01*
X166247658Y-92299909D01*
X166235141Y-92243002D01*
X166234899Y-92234741D01*
X166233099Y-92204471D01*
X166228392Y-92183563D01*
X166218544Y-92173669D01*
X166201323Y-92176444D01*
X166174494Y-92193540D01*
X166135824Y-92226610D01*
X166083080Y-92277307D01*
X166014028Y-92347285D01*
X165926434Y-92438197D01*
X165818065Y-92551695D01*
X165760342Y-92612280D01*
X165663855Y-92713718D01*
X165572568Y-92809889D01*
X165490059Y-92897013D01*
X165419906Y-92971311D01*
X165365685Y-93029003D01*
X165330974Y-93066310D01*
X165236092Y-93169539D01*
X165177449Y-93111052D01*
X165118805Y-93052566D01*
X165844179Y-92292237D01*
X165889916Y-92244263D01*
X166052633Y-92072940D01*
X166192313Y-91924738D01*
X166309373Y-91799198D01*
X166404233Y-91695861D01*
X166471309Y-91620967D01*
X166745947Y-91620967D01*
X166748106Y-91638589D01*
X166748483Y-91640430D01*
X166766480Y-91682171D01*
X166802428Y-91701620D01*
X166913237Y-91743083D01*
X167011963Y-91812156D01*
X167089611Y-91903524D01*
X167142828Y-92013195D01*
X167168258Y-92137173D01*
X167176681Y-92242105D01*
X168438482Y-92242105D01*
X168447280Y-92204506D01*
X168448836Y-92195279D01*
X168453672Y-92154018D01*
X168460271Y-92087304D01*
X168468142Y-92000453D01*
X168476797Y-91898777D01*
X168485743Y-91787592D01*
X168515409Y-91408277D01*
X168115532Y-91002198D01*
X168042187Y-90927961D01*
X167952447Y-90837837D01*
X167871940Y-90757775D01*
X167803488Y-90690542D01*
X167749917Y-90638910D01*
X167714052Y-90605646D01*
X167698715Y-90593521D01*
X167688431Y-90599314D01*
X167657801Y-90625675D01*
X167611705Y-90669709D01*
X167554265Y-90727444D01*
X167489605Y-90794911D01*
X167472738Y-90812804D01*
X167397107Y-90892839D01*
X167306984Y-90987977D01*
X167209155Y-91091067D01*
X167110405Y-91194956D01*
X167017520Y-91292493D01*
X167011940Y-91298346D01*
X166925584Y-91389214D01*
X166859690Y-91459577D01*
X166811651Y-91512783D01*
X166778863Y-91552177D01*
X166758720Y-91581108D01*
X166748616Y-91602922D01*
X166745947Y-91620967D01*
X166471309Y-91620967D01*
X166477311Y-91614266D01*
X166529026Y-91553955D01*
X166559796Y-91514466D01*
X166570040Y-91495342D01*
X166570041Y-91495229D01*
X166568636Y-91471394D01*
X166564531Y-91417967D01*
X166558048Y-91338584D01*
X166549508Y-91236880D01*
X166539233Y-91116493D01*
X166527544Y-90981057D01*
X166514763Y-90834211D01*
X166501212Y-90679590D01*
X166487212Y-90520830D01*
X166473085Y-90361568D01*
X166459153Y-90205441D01*
X166445736Y-90056083D01*
X166433157Y-89917133D01*
X166421738Y-89792226D01*
X166411799Y-89684998D01*
X166403662Y-89599087D01*
X166397650Y-89538127D01*
X166394083Y-89505756D01*
X166386891Y-89451538D01*
X166558573Y-89451538D01*
X166560772Y-89492630D01*
X166565611Y-89561735D01*
X166572848Y-89655870D01*
X166582241Y-89772053D01*
X166593547Y-89907299D01*
X166606523Y-90058627D01*
X166620929Y-90223054D01*
X166636521Y-90397597D01*
X166648710Y-90532206D01*
X166663976Y-90699145D01*
X166678269Y-90853618D01*
X166691305Y-90992649D01*
X166702800Y-91113264D01*
X166712470Y-91212489D01*
X166720030Y-91287348D01*
X166725197Y-91334867D01*
X166727686Y-91352072D01*
X166735236Y-91346742D01*
X166762922Y-91320578D01*
X166807909Y-91275637D01*
X166867100Y-91215191D01*
X166937399Y-91142509D01*
X167015708Y-91060864D01*
X167098930Y-90973526D01*
X167183969Y-90883767D01*
X167267727Y-90794858D01*
X167347107Y-90710070D01*
X167419013Y-90632673D01*
X167480347Y-90565941D01*
X167528013Y-90513142D01*
X167558913Y-90477550D01*
X167567941Y-90465186D01*
X167809574Y-90465186D01*
X168175971Y-90831299D01*
X168265569Y-90920679D01*
X168350013Y-91004320D01*
X168415427Y-91068027D01*
X168464208Y-91113868D01*
X168498753Y-91143909D01*
X168521459Y-91160218D01*
X168534722Y-91164862D01*
X168540940Y-91159908D01*
X168542509Y-91147423D01*
X168543515Y-91127363D01*
X168547140Y-91075712D01*
X168553130Y-90997320D01*
X168561198Y-90895759D01*
X168571055Y-90774602D01*
X168582413Y-90637421D01*
X168594984Y-90487787D01*
X168608480Y-90329271D01*
X168620395Y-90189563D01*
X168632811Y-90042414D01*
X168643943Y-89908805D01*
X168653526Y-89792028D01*
X168661290Y-89695378D01*
X168666969Y-89622145D01*
X168670297Y-89575624D01*
X168671004Y-89559106D01*
X168670444Y-89559416D01*
X168654663Y-89574623D01*
X168619606Y-89610303D01*
X168568363Y-89663220D01*
X168504019Y-89730139D01*
X168429664Y-89807823D01*
X168348385Y-89893036D01*
X168263270Y-89982541D01*
X168177406Y-90073102D01*
X168093881Y-90161483D01*
X168015784Y-90244448D01*
X167946202Y-90318760D01*
X167812141Y-90462434D01*
X167809574Y-90465186D01*
X167567941Y-90465186D01*
X167569951Y-90462434D01*
X167559131Y-90447785D01*
X167527674Y-90412722D01*
X167478503Y-90360265D01*
X167414544Y-90293372D01*
X167338723Y-90214999D01*
X167253967Y-90128103D01*
X167163202Y-90035641D01*
X167069356Y-89940569D01*
X166975354Y-89845845D01*
X166884124Y-89754424D01*
X166798591Y-89669265D01*
X166721683Y-89593323D01*
X166656326Y-89529556D01*
X166605446Y-89480920D01*
X166571970Y-89450372D01*
X166558824Y-89440868D01*
X166558573Y-89451538D01*
X166386891Y-89451538D01*
X166384663Y-89434737D01*
X166019079Y-89434737D01*
X166018870Y-89301052D01*
X166152763Y-89301052D01*
X166261382Y-89301052D01*
X166271045Y-89301044D01*
X166325604Y-89299880D01*
X166355276Y-89294902D01*
X166367571Y-89283477D01*
X166370000Y-89262971D01*
X166359301Y-89232829D01*
X166322654Y-89182687D01*
X166261382Y-89117237D01*
X166152763Y-89009584D01*
X166152763Y-89301052D01*
X166018870Y-89301052D01*
X166018641Y-89154835D01*
X166018204Y-88874934D01*
X165417885Y-88265000D01*
X164817567Y-87655066D01*
X164816744Y-87539337D01*
X164815921Y-87423610D01*
X165535969Y-88153449D01*
X165605564Y-88223944D01*
X165749975Y-88369828D01*
X165873442Y-88493875D01*
X165977560Y-88597611D01*
X166063925Y-88682562D01*
X166134132Y-88750256D01*
X166189776Y-88802219D01*
X166232452Y-88839977D01*
X166263756Y-88865057D01*
X166285282Y-88878986D01*
X166298625Y-88883289D01*
X166321125Y-88881986D01*
X166333756Y-88872468D01*
X166335934Y-88846427D01*
X166330697Y-88795559D01*
X166327086Y-88763533D01*
X166322061Y-88710002D01*
X166320037Y-88674408D01*
X166319045Y-88662138D01*
X166309386Y-88648996D01*
X166282703Y-88644641D01*
X166230902Y-88646542D01*
X166217676Y-88647287D01*
X166164733Y-88646447D01*
X166127073Y-88634813D01*
X166100529Y-88615921D01*
X166476974Y-88615921D01*
X166482504Y-88678585D01*
X166485058Y-88707017D01*
X166493018Y-88784642D01*
X166500861Y-88835769D01*
X166510031Y-88865711D01*
X166521973Y-88879780D01*
X166538129Y-88883289D01*
X166552656Y-88885679D01*
X166562289Y-88897098D01*
X166567672Y-88923645D01*
X166570015Y-88971414D01*
X166570526Y-89046502D01*
X166570526Y-89209715D01*
X166623948Y-89262971D01*
X166754342Y-89392960D01*
X166938158Y-89576206D01*
X166938158Y-89434737D01*
X167940790Y-89434737D01*
X167940790Y-89752237D01*
X167118827Y-89752237D01*
X167397589Y-90040493D01*
X167450984Y-90095548D01*
X167524817Y-90171120D01*
X167588929Y-90236082D01*
X167639961Y-90287060D01*
X167674557Y-90320681D01*
X167689357Y-90333574D01*
X167694983Y-90330018D01*
X167721363Y-90306118D01*
X167766849Y-90261862D01*
X167829012Y-90199708D01*
X167905422Y-90122115D01*
X167993649Y-90031540D01*
X168091262Y-89930441D01*
X168195833Y-89821275D01*
X168300940Y-89710964D01*
X168403974Y-89602246D01*
X168487530Y-89513136D01*
X168553654Y-89441271D01*
X168604387Y-89384289D01*
X168641775Y-89339828D01*
X168667860Y-89305525D01*
X168684687Y-89279017D01*
X168694298Y-89257942D01*
X168698739Y-89239939D01*
X168699916Y-89231169D01*
X168705136Y-89182847D01*
X168711742Y-89111707D01*
X168719008Y-89025861D01*
X168726207Y-88933421D01*
X168728648Y-88901225D01*
X168735701Y-88814236D01*
X168742425Y-88739203D01*
X168748160Y-88683255D01*
X168752240Y-88653520D01*
X168760242Y-88615921D01*
X166476974Y-88615921D01*
X166100529Y-88615921D01*
X166089956Y-88608396D01*
X166083563Y-88602835D01*
X166031285Y-88535487D01*
X166010581Y-88465526D01*
X166463481Y-88465526D01*
X168343306Y-88465526D01*
X168625921Y-88465526D01*
X168701706Y-88465526D01*
X168724412Y-88465366D01*
X168758054Y-88462442D01*
X168767766Y-88452970D01*
X168760227Y-88433267D01*
X168757999Y-88429511D01*
X168732990Y-88400623D01*
X168696757Y-88368563D01*
X168660613Y-88342560D01*
X168635874Y-88331842D01*
X168633650Y-88333536D01*
X168628131Y-88356810D01*
X168625921Y-88398684D01*
X168625921Y-88465526D01*
X168343306Y-88465526D01*
X168338397Y-88345007D01*
X168333487Y-88224488D01*
X168233224Y-88204348D01*
X168182943Y-88195214D01*
X168098975Y-88182425D01*
X168020165Y-88172776D01*
X167907368Y-88161345D01*
X167907368Y-88298421D01*
X167138684Y-88298421D01*
X167138684Y-88177596D01*
X167042599Y-88189065D01*
X166895787Y-88213646D01*
X166748032Y-88258089D01*
X166625814Y-88320062D01*
X166527062Y-88400413D01*
X166463481Y-88465526D01*
X166010581Y-88465526D01*
X166008281Y-88457754D01*
X166015328Y-88376211D01*
X166053203Y-88297434D01*
X166056868Y-88292529D01*
X166107486Y-88250327D01*
X166173474Y-88225365D01*
X166244607Y-88218725D01*
X166310664Y-88231492D01*
X166361419Y-88264750D01*
X166378604Y-88281729D01*
X166395345Y-88285844D01*
X166419318Y-88273115D01*
X166459799Y-88241332D01*
X166472219Y-88231564D01*
X166568111Y-88169911D01*
X166578832Y-88164737D01*
X167272368Y-88164737D01*
X167773684Y-88164737D01*
X167773684Y-88081184D01*
X167272368Y-88081184D01*
X167272368Y-88164737D01*
X166578832Y-88164737D01*
X166681715Y-88115084D01*
X166802453Y-88071033D01*
X166919746Y-88041706D01*
X167023017Y-88031052D01*
X167033988Y-88030968D01*
X167094970Y-88025031D01*
X167128460Y-88008385D01*
X167138684Y-87979133D01*
X167139885Y-87969917D01*
X167146449Y-87961991D01*
X167162391Y-87956189D01*
X167191719Y-87952181D01*
X167238440Y-87949639D01*
X167306559Y-87948230D01*
X167400086Y-87947628D01*
X167523026Y-87947500D01*
X167638219Y-87947725D01*
X167736126Y-87948635D01*
X167807800Y-87950469D01*
X167857001Y-87953466D01*
X167887490Y-87957863D01*
X167903025Y-87963898D01*
X167907368Y-87971808D01*
X167921653Y-87991232D01*
X167961678Y-88003627D01*
X167976997Y-88005796D01*
X168029230Y-88013430D01*
X168098737Y-88023778D01*
X168174737Y-88035240D01*
X168216651Y-88041075D01*
X168277992Y-88047394D01*
X168321273Y-88048918D01*
X168339057Y-88045197D01*
X168342094Y-88042773D01*
X168370130Y-88036785D01*
X168420564Y-88032617D01*
X168485274Y-88031052D01*
X168625921Y-88031052D01*
X168625937Y-88081184D01*
X168625938Y-88085362D01*
G36*
X168625938Y-88085362D02*
G01*
X168626595Y-88102572D01*
X168635141Y-88131467D01*
X168659466Y-88155972D01*
X168706918Y-88185143D01*
X168748573Y-88211793D01*
X168811989Y-88262960D01*
X168869460Y-88320400D01*
X168913422Y-88376279D01*
X168936311Y-88422762D01*
X168941919Y-88440674D01*
X168952309Y-88452970D01*
X168955812Y-88457116D01*
X168984445Y-88464083D01*
X169037141Y-88465526D01*
X169127237Y-88465526D01*
X169127237Y-88615921D01*
X168915228Y-88615921D01*
X168895433Y-88852183D01*
X168892775Y-88884483D01*
X168886583Y-88965340D01*
X168882208Y-89031135D01*
X168880030Y-89075791D01*
X168880426Y-89093233D01*
X168886185Y-89088219D01*
X168912462Y-89062083D01*
X168957888Y-89015758D01*
X169020166Y-88951647D01*
X169096997Y-88872150D01*
X169186080Y-88779669D01*
X169285119Y-88676606D01*
X169391814Y-88565362D01*
X169503865Y-88448338D01*
X169618975Y-88327936D01*
X169734844Y-88206558D01*
X169849174Y-88086604D01*
X169959666Y-87970476D01*
X170064021Y-87860575D01*
X170159940Y-87759304D01*
X170245124Y-87669063D01*
X170317275Y-87592253D01*
X170446194Y-87454539D01*
X170446781Y-87571852D01*
X170447368Y-87689164D01*
X169649286Y-88528485D01*
X168851204Y-89367807D01*
X168835250Y-89559106D01*
X168771419Y-90324528D01*
X168760138Y-90460287D01*
X168746140Y-90630154D01*
X168733220Y-90788505D01*
X168721627Y-90932228D01*
X168711607Y-91058210D01*
X168703407Y-91163338D01*
X168697274Y-91244501D01*
X168693456Y-91298586D01*
X168692199Y-91322480D01*
X168695517Y-91333429D01*
X168710429Y-91357071D01*
X168738709Y-91392703D01*
X168752358Y-91408277D01*
X168781864Y-91441948D01*
X168841399Y-91506428D01*
X168918820Y-91587768D01*
X169015632Y-91687591D01*
X169133342Y-91807520D01*
X169273454Y-91949179D01*
X169365628Y-92042136D01*
X169494119Y-92171795D01*
X169622159Y-92301079D01*
X169745900Y-92426097D01*
X169861492Y-92542959D01*
X169965085Y-92647774D01*
X170052831Y-92736652D01*
X170120881Y-92805702D01*
X170387617Y-93076757D01*
X170339169Y-93127326D01*
X170327743Y-93138719D01*
X170294035Y-93166697D01*
X170270910Y-93177895D01*
X170252805Y-93168335D01*
X170219145Y-93139649D01*
X170178792Y-93098520D01*
X170154230Y-93072542D01*
X170108423Y-93025104D01*
X170043683Y-92958566D01*
X169962295Y-92875263D01*
X169866545Y-92777528D01*
X169758721Y-92667695D01*
X169641108Y-92548096D01*
X169515992Y-92421066D01*
X169385659Y-92288938D01*
X168664831Y-91558732D01*
X168635469Y-91938017D01*
X168629068Y-92018972D01*
X168619721Y-92127793D01*
X168611290Y-92210217D01*
X168603151Y-92270575D01*
X168594679Y-92313200D01*
X168585250Y-92342424D01*
X168574237Y-92362580D01*
X168558825Y-92390750D01*
X168546143Y-92442539D01*
X168542368Y-92517152D01*
X168542368Y-92626447D01*
X168241579Y-92626447D01*
X168241579Y-92392500D01*
X167117832Y-92392500D01*
X167052875Y-92466295D01*
X167035110Y-92485511D01*
X166938831Y-92562712D01*
X166830049Y-92610239D01*
X166712262Y-92626447D01*
X166608327Y-92617854D01*
X166490770Y-92581628D01*
X166390134Y-92516882D01*
X166370520Y-92498378D01*
X166321503Y-92438475D01*
X166278497Y-92368693D01*
X166247658Y-92299909D01*
X166235141Y-92243002D01*
X166234899Y-92234741D01*
X166233099Y-92204471D01*
X166228392Y-92183563D01*
X166218544Y-92173669D01*
X166201323Y-92176444D01*
X166174494Y-92193540D01*
X166135824Y-92226610D01*
X166083080Y-92277307D01*
X166014028Y-92347285D01*
X165926434Y-92438197D01*
X165818065Y-92551695D01*
X165760342Y-92612280D01*
X165663855Y-92713718D01*
X165572568Y-92809889D01*
X165490059Y-92897013D01*
X165419906Y-92971311D01*
X165365685Y-93029003D01*
X165330974Y-93066310D01*
X165236092Y-93169539D01*
X165177449Y-93111052D01*
X165118805Y-93052566D01*
X165844179Y-92292237D01*
X165889916Y-92244263D01*
X166052633Y-92072940D01*
X166192313Y-91924738D01*
X166309373Y-91799198D01*
X166404233Y-91695861D01*
X166471309Y-91620967D01*
X166745947Y-91620967D01*
X166748106Y-91638589D01*
X166748483Y-91640430D01*
X166766480Y-91682171D01*
X166802428Y-91701620D01*
X166913237Y-91743083D01*
X167011963Y-91812156D01*
X167089611Y-91903524D01*
X167142828Y-92013195D01*
X167168258Y-92137173D01*
X167176681Y-92242105D01*
X168438482Y-92242105D01*
X168447280Y-92204506D01*
X168448836Y-92195279D01*
X168453672Y-92154018D01*
X168460271Y-92087304D01*
X168468142Y-92000453D01*
X168476797Y-91898777D01*
X168485743Y-91787592D01*
X168515409Y-91408277D01*
X168115532Y-91002198D01*
X168042187Y-90927961D01*
X167952447Y-90837837D01*
X167871940Y-90757775D01*
X167803488Y-90690542D01*
X167749917Y-90638910D01*
X167714052Y-90605646D01*
X167698715Y-90593521D01*
X167688431Y-90599314D01*
X167657801Y-90625675D01*
X167611705Y-90669709D01*
X167554265Y-90727444D01*
X167489605Y-90794911D01*
X167472738Y-90812804D01*
X167397107Y-90892839D01*
X167306984Y-90987977D01*
X167209155Y-91091067D01*
X167110405Y-91194956D01*
X167017520Y-91292493D01*
X167011940Y-91298346D01*
X166925584Y-91389214D01*
X166859690Y-91459577D01*
X166811651Y-91512783D01*
X166778863Y-91552177D01*
X166758720Y-91581108D01*
X166748616Y-91602922D01*
X166745947Y-91620967D01*
X166471309Y-91620967D01*
X166477311Y-91614266D01*
X166529026Y-91553955D01*
X166559796Y-91514466D01*
X166570040Y-91495342D01*
X166570041Y-91495229D01*
X166568636Y-91471394D01*
X166564531Y-91417967D01*
X166558048Y-91338584D01*
X166549508Y-91236880D01*
X166539233Y-91116493D01*
X166527544Y-90981057D01*
X166514763Y-90834211D01*
X166501212Y-90679590D01*
X166487212Y-90520830D01*
X166473085Y-90361568D01*
X166459153Y-90205441D01*
X166445736Y-90056083D01*
X166433157Y-89917133D01*
X166421738Y-89792226D01*
X166411799Y-89684998D01*
X166403662Y-89599087D01*
X166397650Y-89538127D01*
X166394083Y-89505756D01*
X166386891Y-89451538D01*
X166558573Y-89451538D01*
X166560772Y-89492630D01*
X166565611Y-89561735D01*
X166572848Y-89655870D01*
X166582241Y-89772053D01*
X166593547Y-89907299D01*
X166606523Y-90058627D01*
X166620929Y-90223054D01*
X166636521Y-90397597D01*
X166648710Y-90532206D01*
X166663976Y-90699145D01*
X166678269Y-90853618D01*
X166691305Y-90992649D01*
X166702800Y-91113264D01*
X166712470Y-91212489D01*
X166720030Y-91287348D01*
X166725197Y-91334867D01*
X166727686Y-91352072D01*
X166735236Y-91346742D01*
X166762922Y-91320578D01*
X166807909Y-91275637D01*
X166867100Y-91215191D01*
X166937399Y-91142509D01*
X167015708Y-91060864D01*
X167098930Y-90973526D01*
X167183969Y-90883767D01*
X167267727Y-90794858D01*
X167347107Y-90710070D01*
X167419013Y-90632673D01*
X167480347Y-90565941D01*
X167528013Y-90513142D01*
X167558913Y-90477550D01*
X167567941Y-90465186D01*
X167809574Y-90465186D01*
X168175971Y-90831299D01*
X168265569Y-90920679D01*
X168350013Y-91004320D01*
X168415427Y-91068027D01*
X168464208Y-91113868D01*
X168498753Y-91143909D01*
X168521459Y-91160218D01*
X168534722Y-91164862D01*
X168540940Y-91159908D01*
X168542509Y-91147423D01*
X168543515Y-91127363D01*
X168547140Y-91075712D01*
X168553130Y-90997320D01*
X168561198Y-90895759D01*
X168571055Y-90774602D01*
X168582413Y-90637421D01*
X168594984Y-90487787D01*
X168608480Y-90329271D01*
X168620395Y-90189563D01*
X168632811Y-90042414D01*
X168643943Y-89908805D01*
X168653526Y-89792028D01*
X168661290Y-89695378D01*
X168666969Y-89622145D01*
X168670297Y-89575624D01*
X168671004Y-89559106D01*
X168670444Y-89559416D01*
X168654663Y-89574623D01*
X168619606Y-89610303D01*
X168568363Y-89663220D01*
X168504019Y-89730139D01*
X168429664Y-89807823D01*
X168348385Y-89893036D01*
X168263270Y-89982541D01*
X168177406Y-90073102D01*
X168093881Y-90161483D01*
X168015784Y-90244448D01*
X167946202Y-90318760D01*
X167812141Y-90462434D01*
X167809574Y-90465186D01*
X167567941Y-90465186D01*
X167569951Y-90462434D01*
X167559131Y-90447785D01*
X167527674Y-90412722D01*
X167478503Y-90360265D01*
X167414544Y-90293372D01*
X167338723Y-90214999D01*
X167253967Y-90128103D01*
X167163202Y-90035641D01*
X167069356Y-89940569D01*
X166975354Y-89845845D01*
X166884124Y-89754424D01*
X166798591Y-89669265D01*
X166721683Y-89593323D01*
X166656326Y-89529556D01*
X166605446Y-89480920D01*
X166571970Y-89450372D01*
X166558824Y-89440868D01*
X166558573Y-89451538D01*
X166386891Y-89451538D01*
X166384663Y-89434737D01*
X166019079Y-89434737D01*
X166018870Y-89301052D01*
X166152763Y-89301052D01*
X166261382Y-89301052D01*
X166271045Y-89301044D01*
X166325604Y-89299880D01*
X166355276Y-89294902D01*
X166367571Y-89283477D01*
X166370000Y-89262971D01*
X166359301Y-89232829D01*
X166322654Y-89182687D01*
X166261382Y-89117237D01*
X166152763Y-89009584D01*
X166152763Y-89301052D01*
X166018870Y-89301052D01*
X166018641Y-89154835D01*
X166018204Y-88874934D01*
X165417885Y-88265000D01*
X164817567Y-87655066D01*
X164816744Y-87539337D01*
X164815921Y-87423610D01*
X165535969Y-88153449D01*
X165605564Y-88223944D01*
X165749975Y-88369828D01*
X165873442Y-88493875D01*
X165977560Y-88597611D01*
X166063925Y-88682562D01*
X166134132Y-88750256D01*
X166189776Y-88802219D01*
X166232452Y-88839977D01*
X166263756Y-88865057D01*
X166285282Y-88878986D01*
X166298625Y-88883289D01*
X166321125Y-88881986D01*
X166333756Y-88872468D01*
X166335934Y-88846427D01*
X166330697Y-88795559D01*
X166327086Y-88763533D01*
X166322061Y-88710002D01*
X166320037Y-88674408D01*
X166319045Y-88662138D01*
X166309386Y-88648996D01*
X166282703Y-88644641D01*
X166230902Y-88646542D01*
X166217676Y-88647287D01*
X166164733Y-88646447D01*
X166127073Y-88634813D01*
X166100529Y-88615921D01*
X166476974Y-88615921D01*
X166482504Y-88678585D01*
X166485058Y-88707017D01*
X166493018Y-88784642D01*
X166500861Y-88835769D01*
X166510031Y-88865711D01*
X166521973Y-88879780D01*
X166538129Y-88883289D01*
X166552656Y-88885679D01*
X166562289Y-88897098D01*
X166567672Y-88923645D01*
X166570015Y-88971414D01*
X166570526Y-89046502D01*
X166570526Y-89209715D01*
X166623948Y-89262971D01*
X166754342Y-89392960D01*
X166938158Y-89576206D01*
X166938158Y-89434737D01*
X167940790Y-89434737D01*
X167940790Y-89752237D01*
X167118827Y-89752237D01*
X167397589Y-90040493D01*
X167450984Y-90095548D01*
X167524817Y-90171120D01*
X167588929Y-90236082D01*
X167639961Y-90287060D01*
X167674557Y-90320681D01*
X167689357Y-90333574D01*
X167694983Y-90330018D01*
X167721363Y-90306118D01*
X167766849Y-90261862D01*
X167829012Y-90199708D01*
X167905422Y-90122115D01*
X167993649Y-90031540D01*
X168091262Y-89930441D01*
X168195833Y-89821275D01*
X168300940Y-89710964D01*
X168403974Y-89602246D01*
X168487530Y-89513136D01*
X168553654Y-89441271D01*
X168604387Y-89384289D01*
X168641775Y-89339828D01*
X168667860Y-89305525D01*
X168684687Y-89279017D01*
X168694298Y-89257942D01*
X168698739Y-89239939D01*
X168699916Y-89231169D01*
X168705136Y-89182847D01*
X168711742Y-89111707D01*
X168719008Y-89025861D01*
X168726207Y-88933421D01*
X168728648Y-88901225D01*
X168735701Y-88814236D01*
X168742425Y-88739203D01*
X168748160Y-88683255D01*
X168752240Y-88653520D01*
X168760242Y-88615921D01*
X166476974Y-88615921D01*
X166100529Y-88615921D01*
X166089956Y-88608396D01*
X166083563Y-88602835D01*
X166031285Y-88535487D01*
X166010581Y-88465526D01*
X166463481Y-88465526D01*
X168343306Y-88465526D01*
X168625921Y-88465526D01*
X168701706Y-88465526D01*
X168724412Y-88465366D01*
X168758054Y-88462442D01*
X168767766Y-88452970D01*
X168760227Y-88433267D01*
X168757999Y-88429511D01*
X168732990Y-88400623D01*
X168696757Y-88368563D01*
X168660613Y-88342560D01*
X168635874Y-88331842D01*
X168633650Y-88333536D01*
X168628131Y-88356810D01*
X168625921Y-88398684D01*
X168625921Y-88465526D01*
X168343306Y-88465526D01*
X168338397Y-88345007D01*
X168333487Y-88224488D01*
X168233224Y-88204348D01*
X168182943Y-88195214D01*
X168098975Y-88182425D01*
X168020165Y-88172776D01*
X167907368Y-88161345D01*
X167907368Y-88298421D01*
X167138684Y-88298421D01*
X167138684Y-88177596D01*
X167042599Y-88189065D01*
X166895787Y-88213646D01*
X166748032Y-88258089D01*
X166625814Y-88320062D01*
X166527062Y-88400413D01*
X166463481Y-88465526D01*
X166010581Y-88465526D01*
X166008281Y-88457754D01*
X166015328Y-88376211D01*
X166053203Y-88297434D01*
X166056868Y-88292529D01*
X166107486Y-88250327D01*
X166173474Y-88225365D01*
X166244607Y-88218725D01*
X166310664Y-88231492D01*
X166361419Y-88264750D01*
X166378604Y-88281729D01*
X166395345Y-88285844D01*
X166419318Y-88273115D01*
X166459799Y-88241332D01*
X166472219Y-88231564D01*
X166568111Y-88169911D01*
X166578832Y-88164737D01*
X167272368Y-88164737D01*
X167773684Y-88164737D01*
X167773684Y-88081184D01*
X167272368Y-88081184D01*
X167272368Y-88164737D01*
X166578832Y-88164737D01*
X166681715Y-88115084D01*
X166802453Y-88071033D01*
X166919746Y-88041706D01*
X167023017Y-88031052D01*
X167033988Y-88030968D01*
X167094970Y-88025031D01*
X167128460Y-88008385D01*
X167138684Y-87979133D01*
X167139885Y-87969917D01*
X167146449Y-87961991D01*
X167162391Y-87956189D01*
X167191719Y-87952181D01*
X167238440Y-87949639D01*
X167306559Y-87948230D01*
X167400086Y-87947628D01*
X167523026Y-87947500D01*
X167638219Y-87947725D01*
X167736126Y-87948635D01*
X167807800Y-87950469D01*
X167857001Y-87953466D01*
X167887490Y-87957863D01*
X167903025Y-87963898D01*
X167907368Y-87971808D01*
X167921653Y-87991232D01*
X167961678Y-88003627D01*
X167976997Y-88005796D01*
X168029230Y-88013430D01*
X168098737Y-88023778D01*
X168174737Y-88035240D01*
X168216651Y-88041075D01*
X168277992Y-88047394D01*
X168321273Y-88048918D01*
X168339057Y-88045197D01*
X168342094Y-88042773D01*
X168370130Y-88036785D01*
X168420564Y-88032617D01*
X168485274Y-88031052D01*
X168625921Y-88031052D01*
X168625937Y-88081184D01*
X168625938Y-88085362D01*
G37*
X140038487Y-105457689D02*
X140174848Y-105521770D01*
X140286598Y-105632584D01*
X140309761Y-105667273D01*
X140328973Y-105706590D01*
X140342598Y-105756145D01*
X140351877Y-105825568D01*
X140358050Y-105924490D01*
X140362357Y-106062539D01*
X140366038Y-106249346D01*
X140375180Y-106767542D01*
X140298383Y-106738344D01*
X140228068Y-106711520D01*
X140175424Y-106685706D01*
X140141060Y-106652431D01*
X140121093Y-106601510D01*
X140111639Y-106522761D01*
X140108814Y-106405999D01*
X140108736Y-106241042D01*
X140108336Y-106109558D01*
X140105951Y-105983394D01*
X140100259Y-105897223D01*
X140089961Y-105840672D01*
X140073755Y-105803370D01*
X140050345Y-105774943D01*
X139992793Y-105734827D01*
X139896112Y-105719706D01*
X139800465Y-105757917D01*
X139794152Y-105762810D01*
X139774477Y-105785413D01*
X139759963Y-105821664D01*
X139749394Y-105880511D01*
X139741555Y-105970901D01*
X139735227Y-106101779D01*
X139729195Y-106282095D01*
X139714598Y-106764907D01*
X139590517Y-106709283D01*
X139466437Y-106653659D01*
X139466437Y-106212851D01*
X139466951Y-106093098D01*
X139471380Y-105926506D01*
X139482594Y-105802468D01*
X139503272Y-105710987D01*
X139536093Y-105642066D01*
X139583736Y-105585707D01*
X139648877Y-105531914D01*
X139742571Y-105477719D01*
X139890175Y-105442339D01*
X140038487Y-105457689D01*
G36*
X140038487Y-105457689D02*
G01*
X140174848Y-105521770D01*
X140286598Y-105632584D01*
X140309761Y-105667273D01*
X140328973Y-105706590D01*
X140342598Y-105756145D01*
X140351877Y-105825568D01*
X140358050Y-105924490D01*
X140362357Y-106062539D01*
X140366038Y-106249346D01*
X140375180Y-106767542D01*
X140298383Y-106738344D01*
X140228068Y-106711520D01*
X140175424Y-106685706D01*
X140141060Y-106652431D01*
X140121093Y-106601510D01*
X140111639Y-106522761D01*
X140108814Y-106405999D01*
X140108736Y-106241042D01*
X140108336Y-106109558D01*
X140105951Y-105983394D01*
X140100259Y-105897223D01*
X140089961Y-105840672D01*
X140073755Y-105803370D01*
X140050345Y-105774943D01*
X139992793Y-105734827D01*
X139896112Y-105719706D01*
X139800465Y-105757917D01*
X139794152Y-105762810D01*
X139774477Y-105785413D01*
X139759963Y-105821664D01*
X139749394Y-105880511D01*
X139741555Y-105970901D01*
X139735227Y-106101779D01*
X139729195Y-106282095D01*
X139714598Y-106764907D01*
X139590517Y-106709283D01*
X139466437Y-106653659D01*
X139466437Y-106212851D01*
X139466951Y-106093098D01*
X139471380Y-105926506D01*
X139482594Y-105802468D01*
X139503272Y-105710987D01*
X139536093Y-105642066D01*
X139583736Y-105585707D01*
X139648877Y-105531914D01*
X139742571Y-105477719D01*
X139890175Y-105442339D01*
X140038487Y-105457689D01*
G37*
X142610778Y-106229502D02*
X142613668Y-106453736D01*
X142614471Y-106518785D01*
X142617040Y-106736260D01*
X142617556Y-106902672D01*
X142614437Y-107023846D01*
X142606100Y-107105607D01*
X142590962Y-107153781D01*
X142567441Y-107174194D01*
X142533956Y-107172672D01*
X142488923Y-107155039D01*
X142430761Y-107127121D01*
X142418332Y-107121164D01*
X142366578Y-107092006D01*
X142339550Y-107057314D01*
X142329207Y-106999470D01*
X142327509Y-106900857D01*
X142327433Y-106723793D01*
X142145038Y-106723793D01*
X142032840Y-106718880D01*
X141944620Y-106698953D01*
X141871358Y-106658678D01*
X141865896Y-106654741D01*
X141791558Y-106588243D01*
X141739823Y-106507908D01*
X141707196Y-106402758D01*
X141690182Y-106261815D01*
X141686030Y-106102588D01*
X141977241Y-106102588D01*
X141977291Y-106129276D01*
X141980064Y-106249738D01*
X141988967Y-106328484D01*
X142006617Y-106379618D01*
X142035632Y-106417241D01*
X142037440Y-106419038D01*
X142108753Y-106467720D01*
X142177865Y-106462921D01*
X142255925Y-106403971D01*
X142275019Y-106383823D01*
X142303142Y-106342515D01*
X142319000Y-106288787D01*
X142326009Y-106207326D01*
X142327586Y-106082821D01*
X142326220Y-106007445D01*
X142311402Y-105870362D01*
X142277579Y-105780548D01*
X142221389Y-105731460D01*
X142139472Y-105716552D01*
X142104956Y-105719729D01*
X142045235Y-105751254D01*
X142005752Y-105821505D01*
X141983942Y-105936583D01*
X141977241Y-106102588D01*
X141686030Y-106102588D01*
X141685287Y-106074101D01*
X141686371Y-105937122D01*
X141691307Y-105833364D01*
X141702272Y-105761412D01*
X141721438Y-105707500D01*
X141750977Y-105657864D01*
X141778092Y-105619931D01*
X141876550Y-105517522D01*
X141988100Y-105461903D01*
X142128246Y-105444297D01*
X142288635Y-105461847D01*
X142427288Y-105524797D01*
X142536951Y-105635824D01*
X142545218Y-105647578D01*
X142564499Y-105678813D01*
X142579269Y-105714507D01*
X142590254Y-105762364D01*
X142598174Y-105830087D01*
X142603753Y-105925382D01*
X142607713Y-106055952D01*
X142608188Y-106082821D01*
X142610778Y-106229502D01*
G36*
X142610778Y-106229502D02*
G01*
X142613668Y-106453736D01*
X142614471Y-106518785D01*
X142617040Y-106736260D01*
X142617556Y-106902672D01*
X142614437Y-107023846D01*
X142606100Y-107105607D01*
X142590962Y-107153781D01*
X142567441Y-107174194D01*
X142533956Y-107172672D01*
X142488923Y-107155039D01*
X142430761Y-107127121D01*
X142418332Y-107121164D01*
X142366578Y-107092006D01*
X142339550Y-107057314D01*
X142329207Y-106999470D01*
X142327509Y-106900857D01*
X142327433Y-106723793D01*
X142145038Y-106723793D01*
X142032840Y-106718880D01*
X141944620Y-106698953D01*
X141871358Y-106658678D01*
X141865896Y-106654741D01*
X141791558Y-106588243D01*
X141739823Y-106507908D01*
X141707196Y-106402758D01*
X141690182Y-106261815D01*
X141686030Y-106102588D01*
X141977241Y-106102588D01*
X141977291Y-106129276D01*
X141980064Y-106249738D01*
X141988967Y-106328484D01*
X142006617Y-106379618D01*
X142035632Y-106417241D01*
X142037440Y-106419038D01*
X142108753Y-106467720D01*
X142177865Y-106462921D01*
X142255925Y-106403971D01*
X142275019Y-106383823D01*
X142303142Y-106342515D01*
X142319000Y-106288787D01*
X142326009Y-106207326D01*
X142327586Y-106082821D01*
X142326220Y-106007445D01*
X142311402Y-105870362D01*
X142277579Y-105780548D01*
X142221389Y-105731460D01*
X142139472Y-105716552D01*
X142104956Y-105719729D01*
X142045235Y-105751254D01*
X142005752Y-105821505D01*
X141983942Y-105936583D01*
X141977241Y-106102588D01*
X141686030Y-106102588D01*
X141685287Y-106074101D01*
X141686371Y-105937122D01*
X141691307Y-105833364D01*
X141702272Y-105761412D01*
X141721438Y-105707500D01*
X141750977Y-105657864D01*
X141778092Y-105619931D01*
X141876550Y-105517522D01*
X141988100Y-105461903D01*
X142128246Y-105444297D01*
X142288635Y-105461847D01*
X142427288Y-105524797D01*
X142536951Y-105635824D01*
X142545218Y-105647578D01*
X142564499Y-105678813D01*
X142579269Y-105714507D01*
X142590254Y-105762364D01*
X142598174Y-105830087D01*
X142603753Y-105925382D01*
X142607713Y-106055952D01*
X142608188Y-106082821D01*
X142610778Y-106229502D01*
G37*
X135612553Y-106125287D02*
X135610219Y-106239135D01*
X135593739Y-106394320D01*
X135557883Y-106510612D01*
X135498455Y-106599411D01*
X135411257Y-106672119D01*
X135328195Y-106714150D01*
X135188709Y-106737538D01*
X135049412Y-106711965D01*
X134923510Y-106640694D01*
X134824210Y-106526991D01*
X134812219Y-106506024D01*
X134796384Y-106469291D01*
X134784638Y-106422415D01*
X134776378Y-106357355D01*
X134770998Y-106266070D01*
X134767892Y-106140519D01*
X134767797Y-106129379D01*
X134970345Y-106129379D01*
X134971035Y-106235644D01*
X134975400Y-106331762D01*
X134986192Y-106393811D01*
X135006126Y-106435502D01*
X135037916Y-106470543D01*
X135045364Y-106477279D01*
X135141060Y-106526992D01*
X135242312Y-106521905D01*
X135336614Y-106462362D01*
X135364694Y-106431514D01*
X135388196Y-106390618D01*
X135401322Y-106334080D01*
X135407030Y-106247657D01*
X135408276Y-106117106D01*
X135407661Y-106017487D01*
X135403407Y-105920251D01*
X135392682Y-105857502D01*
X135372707Y-105815382D01*
X135340704Y-105780032D01*
X135321905Y-105764114D01*
X135224492Y-105721235D01*
X135122437Y-105727985D01*
X135033825Y-105784123D01*
X135014749Y-105806382D01*
X134991486Y-105848293D01*
X134978036Y-105906822D01*
X134971841Y-105995880D01*
X134970345Y-106129379D01*
X134767797Y-106129379D01*
X134766457Y-105972661D01*
X134766086Y-105754455D01*
X134765977Y-105077072D01*
X134860862Y-105116819D01*
X134885949Y-105127699D01*
X134925881Y-105152268D01*
X134948739Y-105189475D01*
X134961301Y-105254541D01*
X134970345Y-105362687D01*
X134978605Y-105459788D01*
X134989523Y-105523535D01*
X135005165Y-105547323D01*
X135028736Y-105540943D01*
X135088801Y-105518525D01*
X135196145Y-105512967D01*
X135311624Y-105533728D01*
X135411257Y-105578455D01*
X135466072Y-105619856D01*
X135536452Y-105700632D01*
X135581528Y-105804195D01*
X135605496Y-105941947D01*
X135612239Y-106117106D01*
X135612553Y-106125287D01*
G36*
X135612553Y-106125287D02*
G01*
X135610219Y-106239135D01*
X135593739Y-106394320D01*
X135557883Y-106510612D01*
X135498455Y-106599411D01*
X135411257Y-106672119D01*
X135328195Y-106714150D01*
X135188709Y-106737538D01*
X135049412Y-106711965D01*
X134923510Y-106640694D01*
X134824210Y-106526991D01*
X134812219Y-106506024D01*
X134796384Y-106469291D01*
X134784638Y-106422415D01*
X134776378Y-106357355D01*
X134770998Y-106266070D01*
X134767892Y-106140519D01*
X134767797Y-106129379D01*
X134970345Y-106129379D01*
X134971035Y-106235644D01*
X134975400Y-106331762D01*
X134986192Y-106393811D01*
X135006126Y-106435502D01*
X135037916Y-106470543D01*
X135045364Y-106477279D01*
X135141060Y-106526992D01*
X135242312Y-106521905D01*
X135336614Y-106462362D01*
X135364694Y-106431514D01*
X135388196Y-106390618D01*
X135401322Y-106334080D01*
X135407030Y-106247657D01*
X135408276Y-106117106D01*
X135407661Y-106017487D01*
X135403407Y-105920251D01*
X135392682Y-105857502D01*
X135372707Y-105815382D01*
X135340704Y-105780032D01*
X135321905Y-105764114D01*
X135224492Y-105721235D01*
X135122437Y-105727985D01*
X135033825Y-105784123D01*
X135014749Y-105806382D01*
X134991486Y-105848293D01*
X134978036Y-105906822D01*
X134971841Y-105995880D01*
X134970345Y-106129379D01*
X134767797Y-106129379D01*
X134766457Y-105972661D01*
X134766086Y-105754455D01*
X134765977Y-105077072D01*
X134860862Y-105116819D01*
X134885949Y-105127699D01*
X134925881Y-105152268D01*
X134948739Y-105189475D01*
X134961301Y-105254541D01*
X134970345Y-105362687D01*
X134978605Y-105459788D01*
X134989523Y-105523535D01*
X135005165Y-105547323D01*
X135028736Y-105540943D01*
X135088801Y-105518525D01*
X135196145Y-105512967D01*
X135311624Y-105533728D01*
X135411257Y-105578455D01*
X135466072Y-105619856D01*
X135536452Y-105700632D01*
X135581528Y-105804195D01*
X135605496Y-105941947D01*
X135612239Y-106117106D01*
X135612553Y-106125287D01*
G37*
X134452410Y-105520970D02*
X134516442Y-105546066D01*
X134590805Y-105579947D01*
X134590805Y-106558727D01*
X134498415Y-106651117D01*
X134477310Y-106671835D01*
X134418847Y-106717885D01*
X134359886Y-106732801D01*
X134272150Y-106725934D01*
X134236429Y-106721494D01*
X134144301Y-106712102D01*
X134079885Y-106708361D01*
X134060778Y-106708933D01*
X133982390Y-106715126D01*
X133887620Y-106725934D01*
X133857298Y-106729647D01*
X133780911Y-106731107D01*
X133725022Y-106708047D01*
X133661355Y-106651117D01*
X133568965Y-106558727D01*
X133568965Y-106035455D01*
X133569685Y-105880821D01*
X133571929Y-105733391D01*
X133575421Y-105616653D01*
X133579876Y-105539840D01*
X133585013Y-105512184D01*
X133586090Y-105512258D01*
X133623407Y-105526019D01*
X133686457Y-105556344D01*
X133771854Y-105600505D01*
X133779893Y-106059965D01*
X133787931Y-106519425D01*
X133963103Y-106519425D01*
X133971092Y-106015805D01*
X133973624Y-105878904D01*
X133977249Y-105732579D01*
X133981177Y-105616411D01*
X133985080Y-105539809D01*
X133988632Y-105512184D01*
X133989653Y-105512281D01*
X134025051Y-105522443D01*
X134090126Y-105544235D01*
X134182069Y-105576287D01*
X134182516Y-106018661D01*
X134182964Y-106095507D01*
X134186069Y-106244834D01*
X134191622Y-106369544D01*
X134199033Y-106458379D01*
X134207714Y-106500083D01*
X134238771Y-106522389D01*
X134302152Y-106529278D01*
X134371839Y-106519425D01*
X134379827Y-106015805D01*
X134382686Y-105887828D01*
X134388614Y-105736348D01*
X134396365Y-105617530D01*
X134405343Y-105539950D01*
X134414948Y-105512184D01*
X134452410Y-105520970D01*
G36*
X134452410Y-105520970D02*
G01*
X134516442Y-105546066D01*
X134590805Y-105579947D01*
X134590805Y-106558727D01*
X134498415Y-106651117D01*
X134477310Y-106671835D01*
X134418847Y-106717885D01*
X134359886Y-106732801D01*
X134272150Y-106725934D01*
X134236429Y-106721494D01*
X134144301Y-106712102D01*
X134079885Y-106708361D01*
X134060778Y-106708933D01*
X133982390Y-106715126D01*
X133887620Y-106725934D01*
X133857298Y-106729647D01*
X133780911Y-106731107D01*
X133725022Y-106708047D01*
X133661355Y-106651117D01*
X133568965Y-106558727D01*
X133568965Y-106035455D01*
X133569685Y-105880821D01*
X133571929Y-105733391D01*
X133575421Y-105616653D01*
X133579876Y-105539840D01*
X133585013Y-105512184D01*
X133586090Y-105512258D01*
X133623407Y-105526019D01*
X133686457Y-105556344D01*
X133771854Y-105600505D01*
X133779893Y-106059965D01*
X133787931Y-106519425D01*
X133963103Y-106519425D01*
X133971092Y-106015805D01*
X133973624Y-105878904D01*
X133977249Y-105732579D01*
X133981177Y-105616411D01*
X133985080Y-105539809D01*
X133988632Y-105512184D01*
X133989653Y-105512281D01*
X134025051Y-105522443D01*
X134090126Y-105544235D01*
X134182069Y-105576287D01*
X134182516Y-106018661D01*
X134182964Y-106095507D01*
X134186069Y-106244834D01*
X134191622Y-106369544D01*
X134199033Y-106458379D01*
X134207714Y-106500083D01*
X134238771Y-106522389D01*
X134302152Y-106529278D01*
X134371839Y-106519425D01*
X134379827Y-106015805D01*
X134382686Y-105887828D01*
X134388614Y-105736348D01*
X134396365Y-105617530D01*
X134405343Y-105539950D01*
X134414948Y-105512184D01*
X134452410Y-105520970D01*
G37*
X132096725Y-105524619D02*
X132217261Y-105569393D01*
X132267388Y-105603034D01*
X132318152Y-105651236D01*
X132354362Y-105712551D01*
X132378393Y-105796024D01*
X132392618Y-105910697D01*
X132399412Y-106065613D01*
X132401149Y-106269814D01*
X132400809Y-106375341D01*
X132399101Y-106519541D01*
X132396201Y-106634620D01*
X132392384Y-106710822D01*
X132387925Y-106738391D01*
X132358909Y-106729272D01*
X132300339Y-106704509D01*
X132298581Y-106703707D01*
X132268167Y-106687785D01*
X132247712Y-106665938D01*
X132235240Y-106627672D01*
X132228777Y-106562495D01*
X132226348Y-106459913D01*
X132225977Y-106309433D01*
X132225229Y-106213974D01*
X132217256Y-106034571D01*
X132198998Y-105903163D01*
X132168526Y-105812859D01*
X132123912Y-105756767D01*
X132063226Y-105727994D01*
X132054807Y-105725989D01*
X131941139Y-105724423D01*
X131852492Y-105775348D01*
X131791265Y-105877445D01*
X131780346Y-105906961D01*
X131755458Y-105972283D01*
X131742854Y-106002300D01*
X131716969Y-105998164D01*
X131660439Y-105975717D01*
X131607715Y-105938647D01*
X131583678Y-105868587D01*
X131590847Y-105818406D01*
X131634897Y-105716618D01*
X131706123Y-105621235D01*
X131789415Y-105555269D01*
X131824310Y-105540018D01*
X131956443Y-105514521D01*
X132096725Y-105524619D01*
G36*
X132096725Y-105524619D02*
G01*
X132217261Y-105569393D01*
X132267388Y-105603034D01*
X132318152Y-105651236D01*
X132354362Y-105712551D01*
X132378393Y-105796024D01*
X132392618Y-105910697D01*
X132399412Y-106065613D01*
X132401149Y-106269814D01*
X132400809Y-106375341D01*
X132399101Y-106519541D01*
X132396201Y-106634620D01*
X132392384Y-106710822D01*
X132387925Y-106738391D01*
X132358909Y-106729272D01*
X132300339Y-106704509D01*
X132298581Y-106703707D01*
X132268167Y-106687785D01*
X132247712Y-106665938D01*
X132235240Y-106627672D01*
X132228777Y-106562495D01*
X132226348Y-106459913D01*
X132225977Y-106309433D01*
X132225229Y-106213974D01*
X132217256Y-106034571D01*
X132198998Y-105903163D01*
X132168526Y-105812859D01*
X132123912Y-105756767D01*
X132063226Y-105727994D01*
X132054807Y-105725989D01*
X131941139Y-105724423D01*
X131852492Y-105775348D01*
X131791265Y-105877445D01*
X131780346Y-105906961D01*
X131755458Y-105972283D01*
X131742854Y-106002300D01*
X131716969Y-105998164D01*
X131660439Y-105975717D01*
X131607715Y-105938647D01*
X131583678Y-105868587D01*
X131590847Y-105818406D01*
X131634897Y-105716618D01*
X131706123Y-105621235D01*
X131789415Y-105555269D01*
X131824310Y-105540018D01*
X131956443Y-105514521D01*
X132096725Y-105524619D01*
G37*
X137389175Y-96053045D02*
X137541895Y-96054039D01*
X137651792Y-96056593D01*
X137726235Y-96061445D01*
X137772594Y-96069331D01*
X137798239Y-96080988D01*
X137810539Y-96097153D01*
X137816865Y-96118563D01*
X137817047Y-96119332D01*
X137827441Y-96169663D01*
X137846339Y-96266888D01*
X137871802Y-96400810D01*
X137901890Y-96561235D01*
X137934664Y-96737967D01*
X137937337Y-96752428D01*
X137970010Y-96923959D01*
X138000413Y-97074625D01*
X138026568Y-97195267D01*
X138046496Y-97276729D01*
X138058220Y-97309852D01*
X138058282Y-97309905D01*
X138095229Y-97328229D01*
X138171057Y-97358677D01*
X138269425Y-97394685D01*
X138274965Y-97396640D01*
X138400724Y-97444170D01*
X138547011Y-97503783D01*
X138683293Y-97563056D01*
X138907390Y-97664765D01*
X139403618Y-97325897D01*
X139438570Y-97302063D01*
X139588280Y-97200755D01*
X139721867Y-97111575D01*
X139831343Y-97039773D01*
X139908718Y-96990603D01*
X139946004Y-96969317D01*
X139971552Y-96974196D01*
X140029555Y-97012002D01*
X140119195Y-97086870D01*
X140242957Y-97200903D01*
X140403328Y-97356205D01*
X140417679Y-97370341D01*
X140544933Y-97496999D01*
X140657969Y-97611745D01*
X140749867Y-97707391D01*
X140813707Y-97776746D01*
X140842570Y-97812620D01*
X140842664Y-97812794D01*
X140846331Y-97840106D01*
X140832808Y-97884408D01*
X140798684Y-97951761D01*
X140740548Y-98048226D01*
X140654988Y-98179863D01*
X140538594Y-98352734D01*
X140518759Y-98381912D01*
X140418445Y-98529726D01*
X140329923Y-98660577D01*
X140258465Y-98766643D01*
X140209343Y-98840102D01*
X140187831Y-98873130D01*
X140186208Y-98880126D01*
X140196387Y-98932326D01*
X140226879Y-99017561D01*
X140272712Y-99121291D01*
X140335000Y-99256951D01*
X140404548Y-99417921D01*
X140463609Y-99563621D01*
X140478252Y-99601333D01*
X140516600Y-99697622D01*
X140544770Y-99764704D01*
X140557497Y-99789885D01*
X140571545Y-99791767D01*
X140634681Y-99802651D01*
X140738019Y-99821449D01*
X140870809Y-99846115D01*
X141022297Y-99874604D01*
X141181732Y-99904873D01*
X141338361Y-99934875D01*
X141481433Y-99962566D01*
X141600195Y-99985900D01*
X141683896Y-100002833D01*
X141721782Y-100011320D01*
X141728063Y-100013713D01*
X141743373Y-100026619D01*
X141754763Y-100054096D01*
X141762803Y-100103446D01*
X141768064Y-100181973D01*
X141771116Y-100296980D01*
X141772529Y-100455770D01*
X141772873Y-100665645D01*
X141772873Y-101303906D01*
X141619598Y-101334160D01*
X141601057Y-101337785D01*
X141502596Y-101356569D01*
X141366448Y-101382093D01*
X141208087Y-101411468D01*
X141042988Y-101441806D01*
X140977973Y-101454009D01*
X140832697Y-101483697D01*
X140711626Y-101511770D01*
X140625886Y-101535536D01*
X140586601Y-101552301D01*
X140568799Y-101579694D01*
X140536389Y-101652174D01*
X140503234Y-101745977D01*
X140491564Y-101781103D01*
X140448604Y-101896409D01*
X140393192Y-102032876D01*
X140334353Y-102167954D01*
X140302884Y-102238509D01*
X140258051Y-102343895D01*
X140227240Y-102422818D01*
X140215785Y-102462053D01*
X140216422Y-102465014D01*
X140238150Y-102506639D01*
X140287146Y-102586969D01*
X140358438Y-102698220D01*
X140447054Y-102832605D01*
X140548023Y-102982340D01*
X140880261Y-103469931D01*
X140443771Y-103907149D01*
X140401555Y-103949221D01*
X140272470Y-104075153D01*
X140157107Y-104183754D01*
X140062224Y-104268903D01*
X139994582Y-104324482D01*
X139960938Y-104344368D01*
X139924402Y-104329238D01*
X139847890Y-104285801D01*
X139740196Y-104219270D01*
X139609767Y-104134867D01*
X139465052Y-104037816D01*
X139322910Y-103941964D01*
X139194678Y-103857557D01*
X139090054Y-103790850D01*
X139017171Y-103747024D01*
X138984158Y-103731264D01*
X138982223Y-103731408D01*
X138938369Y-103746945D01*
X138860598Y-103783121D01*
X138764392Y-103832785D01*
X138763381Y-103833329D01*
X138635605Y-103897326D01*
X138548051Y-103928591D01*
X138493726Y-103928677D01*
X138465641Y-103899138D01*
X138453752Y-103870061D01*
X138421668Y-103792188D01*
X138372247Y-103672475D01*
X138308118Y-103517286D01*
X138231911Y-103332984D01*
X138146255Y-103125933D01*
X138053781Y-102902496D01*
X137969962Y-102699226D01*
X137884678Y-102490649D01*
X137809222Y-102304263D01*
X137746126Y-102146407D01*
X137697923Y-102023419D01*
X137667144Y-101941639D01*
X137656322Y-101907406D01*
X137676991Y-101876015D01*
X137734409Y-101823602D01*
X137815688Y-101762704D01*
X138010820Y-101603387D01*
X138185445Y-101399807D01*
X138313235Y-101175808D01*
X138393402Y-100938003D01*
X138425160Y-100693007D01*
X138407722Y-100447433D01*
X138340301Y-100207895D01*
X138222111Y-99981007D01*
X138052364Y-99773383D01*
X137963856Y-99692527D01*
X137751804Y-99549559D01*
X137524905Y-99456352D01*
X137289791Y-99410687D01*
X137053094Y-99410344D01*
X136821446Y-99453105D01*
X136601478Y-99536750D01*
X136399822Y-99659061D01*
X136223111Y-99817817D01*
X136077977Y-100010801D01*
X135971050Y-100235793D01*
X135908964Y-100490575D01*
X135897569Y-100613377D01*
X135913246Y-100879434D01*
X135983846Y-101131856D01*
X136107282Y-101366182D01*
X136281466Y-101577952D01*
X136504311Y-101762704D01*
X136582561Y-101821123D01*
X136641244Y-101874110D01*
X136663678Y-101907356D01*
X136654732Y-101936339D01*
X136625703Y-102013996D01*
X136579026Y-102133451D01*
X136517231Y-102288362D01*
X136442850Y-102472392D01*
X136358412Y-102679200D01*
X136266449Y-102902446D01*
X136182771Y-103104742D01*
X136096366Y-103313686D01*
X136019138Y-103500498D01*
X135953716Y-103658814D01*
X135902731Y-103782269D01*
X135868812Y-103864498D01*
X135854590Y-103899138D01*
X135854425Y-103899548D01*
X135825972Y-103928798D01*
X135771382Y-103928463D01*
X135683609Y-103896980D01*
X135555608Y-103832785D01*
X135545532Y-103827380D01*
X135450481Y-103778750D01*
X135375424Y-103744328D01*
X135335842Y-103731264D01*
X135303400Y-103746702D01*
X135230895Y-103790258D01*
X135126565Y-103856751D01*
X134998539Y-103940998D01*
X134854948Y-104037816D01*
X134713468Y-104132734D01*
X134582611Y-104217490D01*
X134474292Y-104284496D01*
X134396960Y-104328529D01*
X134359062Y-104344368D01*
X134352607Y-104342357D01*
X134307609Y-104310658D01*
X134230727Y-104245181D01*
X134128721Y-104152048D01*
X134008351Y-104037381D01*
X133876379Y-103907300D01*
X133440039Y-103470232D01*
X134119733Y-102470440D01*
X134016402Y-102246886D01*
X134016096Y-102246225D01*
X133954046Y-102103714D01*
X133890640Y-101945018D01*
X133839558Y-101804368D01*
X133831827Y-101781683D01*
X133792852Y-101676370D01*
X133757707Y-101594534D01*
X133733195Y-101552301D01*
X133723212Y-101546337D01*
X133663286Y-101526329D01*
X133561532Y-101500442D01*
X133429068Y-101471370D01*
X133277011Y-101441806D01*
X133231466Y-101433467D01*
X133066685Y-101403107D01*
X132912930Y-101374509D01*
X132785678Y-101350564D01*
X132700402Y-101334160D01*
X132547126Y-101303906D01*
X132547126Y-100665645D01*
X132547160Y-100587165D01*
X132547808Y-100395703D01*
X132549720Y-100252812D01*
X132553469Y-100151189D01*
X132559622Y-100083531D01*
X132568751Y-100042536D01*
X132581427Y-100020900D01*
X132598218Y-100011320D01*
X132614474Y-100007439D01*
X132680748Y-99993710D01*
X132786479Y-99972745D01*
X132920915Y-99946588D01*
X133073302Y-99917283D01*
X133232890Y-99886877D01*
X133388925Y-99857413D01*
X133530657Y-99830937D01*
X133647331Y-99809494D01*
X133728197Y-99795128D01*
X133762503Y-99789885D01*
X133764822Y-99786720D01*
X133783474Y-99745642D01*
X133815753Y-99667044D01*
X133856391Y-99563621D01*
X133912788Y-99424273D01*
X133982214Y-99263226D01*
X134047288Y-99121291D01*
X134062202Y-99089432D01*
X134104047Y-98989669D01*
X134129118Y-98912721D01*
X134132426Y-98873130D01*
X134130720Y-98870325D01*
X134103631Y-98829005D01*
X134049927Y-98748740D01*
X133974877Y-98637350D01*
X133883746Y-98502655D01*
X133781800Y-98352476D01*
X133666930Y-98181851D01*
X133580761Y-98049311D01*
X133522131Y-97952112D01*
X133487650Y-97884234D01*
X133473926Y-97839656D01*
X133477568Y-97812361D01*
X133478794Y-97810313D01*
X133511747Y-97770536D01*
X133578927Y-97698052D01*
X133673419Y-97600046D01*
X133788306Y-97483702D01*
X133916672Y-97356205D01*
X134049831Y-97226821D01*
X134180269Y-97105209D01*
X134276119Y-97023156D01*
X134339866Y-96978560D01*
X134373996Y-96969317D01*
X134378456Y-96971393D01*
X134425421Y-96999385D01*
X134510685Y-97054084D01*
X134626259Y-97130237D01*
X134764154Y-97222592D01*
X134916381Y-97325897D01*
X135412610Y-97664765D01*
X135636707Y-97563056D01*
X135643219Y-97560109D01*
X135780804Y-97500504D01*
X135926767Y-97441222D01*
X136050575Y-97394685D01*
X136051122Y-97394493D01*
X136149414Y-97358497D01*
X136225081Y-97328095D01*
X136261780Y-97309852D01*
X136262374Y-97309190D01*
X136274833Y-97271831D01*
X136295336Y-97186871D01*
X136321907Y-97063469D01*
X136352567Y-96910782D01*
X136385336Y-96737967D01*
X136386478Y-96731774D01*
X136419193Y-96555431D01*
X136449155Y-96395743D01*
X136474425Y-96262905D01*
X136493065Y-96167113D01*
X136503135Y-96118563D01*
X136503779Y-96115873D01*
X136510408Y-96095088D01*
X136523841Y-96079466D01*
X136551446Y-96068270D01*
X136600593Y-96060762D01*
X136678653Y-96056205D01*
X136792994Y-96053863D01*
X136950986Y-96052998D01*
X137160000Y-96052874D01*
X137186262Y-96052874D01*
X137389175Y-96053045D01*
G36*
X137389175Y-96053045D02*
G01*
X137541895Y-96054039D01*
X137651792Y-96056593D01*
X137726235Y-96061445D01*
X137772594Y-96069331D01*
X137798239Y-96080988D01*
X137810539Y-96097153D01*
X137816865Y-96118563D01*
X137817047Y-96119332D01*
X137827441Y-96169663D01*
X137846339Y-96266888D01*
X137871802Y-96400810D01*
X137901890Y-96561235D01*
X137934664Y-96737967D01*
X137937337Y-96752428D01*
X137970010Y-96923959D01*
X138000413Y-97074625D01*
X138026568Y-97195267D01*
X138046496Y-97276729D01*
X138058220Y-97309852D01*
X138058282Y-97309905D01*
X138095229Y-97328229D01*
X138171057Y-97358677D01*
X138269425Y-97394685D01*
X138274965Y-97396640D01*
X138400724Y-97444170D01*
X138547011Y-97503783D01*
X138683293Y-97563056D01*
X138907390Y-97664765D01*
X139403618Y-97325897D01*
X139438570Y-97302063D01*
X139588280Y-97200755D01*
X139721867Y-97111575D01*
X139831343Y-97039773D01*
X139908718Y-96990603D01*
X139946004Y-96969317D01*
X139971552Y-96974196D01*
X140029555Y-97012002D01*
X140119195Y-97086870D01*
X140242957Y-97200903D01*
X140403328Y-97356205D01*
X140417679Y-97370341D01*
X140544933Y-97496999D01*
X140657969Y-97611745D01*
X140749867Y-97707391D01*
X140813707Y-97776746D01*
X140842570Y-97812620D01*
X140842664Y-97812794D01*
X140846331Y-97840106D01*
X140832808Y-97884408D01*
X140798684Y-97951761D01*
X140740548Y-98048226D01*
X140654988Y-98179863D01*
X140538594Y-98352734D01*
X140518759Y-98381912D01*
X140418445Y-98529726D01*
X140329923Y-98660577D01*
X140258465Y-98766643D01*
X140209343Y-98840102D01*
X140187831Y-98873130D01*
X140186208Y-98880126D01*
X140196387Y-98932326D01*
X140226879Y-99017561D01*
X140272712Y-99121291D01*
X140335000Y-99256951D01*
X140404548Y-99417921D01*
X140463609Y-99563621D01*
X140478252Y-99601333D01*
X140516600Y-99697622D01*
X140544770Y-99764704D01*
X140557497Y-99789885D01*
X140571545Y-99791767D01*
X140634681Y-99802651D01*
X140738019Y-99821449D01*
X140870809Y-99846115D01*
X141022297Y-99874604D01*
X141181732Y-99904873D01*
X141338361Y-99934875D01*
X141481433Y-99962566D01*
X141600195Y-99985900D01*
X141683896Y-100002833D01*
X141721782Y-100011320D01*
X141728063Y-100013713D01*
X141743373Y-100026619D01*
X141754763Y-100054096D01*
X141762803Y-100103446D01*
X141768064Y-100181973D01*
X141771116Y-100296980D01*
X141772529Y-100455770D01*
X141772873Y-100665645D01*
X141772873Y-101303906D01*
X141619598Y-101334160D01*
X141601057Y-101337785D01*
X141502596Y-101356569D01*
X141366448Y-101382093D01*
X141208087Y-101411468D01*
X141042988Y-101441806D01*
X140977973Y-101454009D01*
X140832697Y-101483697D01*
X140711626Y-101511770D01*
X140625886Y-101535536D01*
X140586601Y-101552301D01*
X140568799Y-101579694D01*
X140536389Y-101652174D01*
X140503234Y-101745977D01*
X140491564Y-101781103D01*
X140448604Y-101896409D01*
X140393192Y-102032876D01*
X140334353Y-102167954D01*
X140302884Y-102238509D01*
X140258051Y-102343895D01*
X140227240Y-102422818D01*
X140215785Y-102462053D01*
X140216422Y-102465014D01*
X140238150Y-102506639D01*
X140287146Y-102586969D01*
X140358438Y-102698220D01*
X140447054Y-102832605D01*
X140548023Y-102982340D01*
X140880261Y-103469931D01*
X140443771Y-103907149D01*
X140401555Y-103949221D01*
X140272470Y-104075153D01*
X140157107Y-104183754D01*
X140062224Y-104268903D01*
X139994582Y-104324482D01*
X139960938Y-104344368D01*
X139924402Y-104329238D01*
X139847890Y-104285801D01*
X139740196Y-104219270D01*
X139609767Y-104134867D01*
X139465052Y-104037816D01*
X139322910Y-103941964D01*
X139194678Y-103857557D01*
X139090054Y-103790850D01*
X139017171Y-103747024D01*
X138984158Y-103731264D01*
X138982223Y-103731408D01*
X138938369Y-103746945D01*
X138860598Y-103783121D01*
X138764392Y-103832785D01*
X138763381Y-103833329D01*
X138635605Y-103897326D01*
X138548051Y-103928591D01*
X138493726Y-103928677D01*
X138465641Y-103899138D01*
X138453752Y-103870061D01*
X138421668Y-103792188D01*
X138372247Y-103672475D01*
X138308118Y-103517286D01*
X138231911Y-103332984D01*
X138146255Y-103125933D01*
X138053781Y-102902496D01*
X137969962Y-102699226D01*
X137884678Y-102490649D01*
X137809222Y-102304263D01*
X137746126Y-102146407D01*
X137697923Y-102023419D01*
X137667144Y-101941639D01*
X137656322Y-101907406D01*
X137676991Y-101876015D01*
X137734409Y-101823602D01*
X137815688Y-101762704D01*
X138010820Y-101603387D01*
X138185445Y-101399807D01*
X138313235Y-101175808D01*
X138393402Y-100938003D01*
X138425160Y-100693007D01*
X138407722Y-100447433D01*
X138340301Y-100207895D01*
X138222111Y-99981007D01*
X138052364Y-99773383D01*
X137963856Y-99692527D01*
X137751804Y-99549559D01*
X137524905Y-99456352D01*
X137289791Y-99410687D01*
X137053094Y-99410344D01*
X136821446Y-99453105D01*
X136601478Y-99536750D01*
X136399822Y-99659061D01*
X136223111Y-99817817D01*
X136077977Y-100010801D01*
X135971050Y-100235793D01*
X135908964Y-100490575D01*
X135897569Y-100613377D01*
X135913246Y-100879434D01*
X135983846Y-101131856D01*
X136107282Y-101366182D01*
X136281466Y-101577952D01*
X136504311Y-101762704D01*
X136582561Y-101821123D01*
X136641244Y-101874110D01*
X136663678Y-101907356D01*
X136654732Y-101936339D01*
X136625703Y-102013996D01*
X136579026Y-102133451D01*
X136517231Y-102288362D01*
X136442850Y-102472392D01*
X136358412Y-102679200D01*
X136266449Y-102902446D01*
X136182771Y-103104742D01*
X136096366Y-103313686D01*
X136019138Y-103500498D01*
X135953716Y-103658814D01*
X135902731Y-103782269D01*
X135868812Y-103864498D01*
X135854590Y-103899138D01*
X135854425Y-103899548D01*
X135825972Y-103928798D01*
X135771382Y-103928463D01*
X135683609Y-103896980D01*
X135555608Y-103832785D01*
X135545532Y-103827380D01*
X135450481Y-103778750D01*
X135375424Y-103744328D01*
X135335842Y-103731264D01*
X135303400Y-103746702D01*
X135230895Y-103790258D01*
X135126565Y-103856751D01*
X134998539Y-103940998D01*
X134854948Y-104037816D01*
X134713468Y-104132734D01*
X134582611Y-104217490D01*
X134474292Y-104284496D01*
X134396960Y-104328529D01*
X134359062Y-104344368D01*
X134352607Y-104342357D01*
X134307609Y-104310658D01*
X134230727Y-104245181D01*
X134128721Y-104152048D01*
X134008351Y-104037381D01*
X133876379Y-103907300D01*
X133440039Y-103470232D01*
X134119733Y-102470440D01*
X134016402Y-102246886D01*
X134016096Y-102246225D01*
X133954046Y-102103714D01*
X133890640Y-101945018D01*
X133839558Y-101804368D01*
X133831827Y-101781683D01*
X133792852Y-101676370D01*
X133757707Y-101594534D01*
X133733195Y-101552301D01*
X133723212Y-101546337D01*
X133663286Y-101526329D01*
X133561532Y-101500442D01*
X133429068Y-101471370D01*
X133277011Y-101441806D01*
X133231466Y-101433467D01*
X133066685Y-101403107D01*
X132912930Y-101374509D01*
X132785678Y-101350564D01*
X132700402Y-101334160D01*
X132547126Y-101303906D01*
X132547126Y-100665645D01*
X132547160Y-100587165D01*
X132547808Y-100395703D01*
X132549720Y-100252812D01*
X132553469Y-100151189D01*
X132559622Y-100083531D01*
X132568751Y-100042536D01*
X132581427Y-100020900D01*
X132598218Y-100011320D01*
X132614474Y-100007439D01*
X132680748Y-99993710D01*
X132786479Y-99972745D01*
X132920915Y-99946588D01*
X133073302Y-99917283D01*
X133232890Y-99886877D01*
X133388925Y-99857413D01*
X133530657Y-99830937D01*
X133647331Y-99809494D01*
X133728197Y-99795128D01*
X133762503Y-99789885D01*
X133764822Y-99786720D01*
X133783474Y-99745642D01*
X133815753Y-99667044D01*
X133856391Y-99563621D01*
X133912788Y-99424273D01*
X133982214Y-99263226D01*
X134047288Y-99121291D01*
X134062202Y-99089432D01*
X134104047Y-98989669D01*
X134129118Y-98912721D01*
X134132426Y-98873130D01*
X134130720Y-98870325D01*
X134103631Y-98829005D01*
X134049927Y-98748740D01*
X133974877Y-98637350D01*
X133883746Y-98502655D01*
X133781800Y-98352476D01*
X133666930Y-98181851D01*
X133580761Y-98049311D01*
X133522131Y-97952112D01*
X133487650Y-97884234D01*
X133473926Y-97839656D01*
X133477568Y-97812361D01*
X133478794Y-97810313D01*
X133511747Y-97770536D01*
X133578927Y-97698052D01*
X133673419Y-97600046D01*
X133788306Y-97483702D01*
X133916672Y-97356205D01*
X134049831Y-97226821D01*
X134180269Y-97105209D01*
X134276119Y-97023156D01*
X134339866Y-96978560D01*
X134373996Y-96969317D01*
X134378456Y-96971393D01*
X134425421Y-96999385D01*
X134510685Y-97054084D01*
X134626259Y-97130237D01*
X134764154Y-97222592D01*
X134916381Y-97325897D01*
X135412610Y-97664765D01*
X135636707Y-97563056D01*
X135643219Y-97560109D01*
X135780804Y-97500504D01*
X135926767Y-97441222D01*
X136050575Y-97394685D01*
X136051122Y-97394493D01*
X136149414Y-97358497D01*
X136225081Y-97328095D01*
X136261780Y-97309852D01*
X136262374Y-97309190D01*
X136274833Y-97271831D01*
X136295336Y-97186871D01*
X136321907Y-97063469D01*
X136352567Y-96910782D01*
X136385336Y-96737967D01*
X136386478Y-96731774D01*
X136419193Y-96555431D01*
X136449155Y-96395743D01*
X136474425Y-96262905D01*
X136493065Y-96167113D01*
X136503135Y-96118563D01*
X136503779Y-96115873D01*
X136510408Y-96095088D01*
X136523841Y-96079466D01*
X136551446Y-96068270D01*
X136600593Y-96060762D01*
X136678653Y-96056205D01*
X136792994Y-96053863D01*
X136950986Y-96052998D01*
X137160000Y-96052874D01*
X137186262Y-96052874D01*
X137389175Y-96053045D01*
G37*
X137339995Y-105543674D02*
X137440355Y-105602191D01*
X137484505Y-105647784D01*
X137569347Y-105784072D01*
X137597931Y-105932658D01*
X137597931Y-106034882D01*
X137503963Y-105995372D01*
X137438977Y-105955504D01*
X137387763Y-105872734D01*
X137382504Y-105855669D01*
X137325903Y-105768724D01*
X137240594Y-105721758D01*
X137142641Y-105719741D01*
X137048106Y-105767644D01*
X137033993Y-105779998D01*
X136986797Y-105833683D01*
X136979003Y-105880488D01*
X137014706Y-105926446D01*
X137098003Y-105977588D01*
X137232988Y-106039948D01*
X137242118Y-106043897D01*
X137391969Y-106113772D01*
X137494316Y-106175672D01*
X137557320Y-106237476D01*
X137589138Y-106307062D01*
X137597931Y-106392308D01*
X137586409Y-106486816D01*
X137528228Y-106607785D01*
X137425875Y-106694688D01*
X137351843Y-106720778D01*
X137247367Y-106735055D01*
X137145917Y-106732006D01*
X137073472Y-106710467D01*
X137065777Y-106705104D01*
X137045341Y-106667632D01*
X137059522Y-106601591D01*
X137084161Y-106549753D01*
X137123670Y-106528172D01*
X137198602Y-106529246D01*
X137302630Y-106523055D01*
X137370605Y-106480311D01*
X137393563Y-106401189D01*
X137393542Y-106398916D01*
X137379629Y-106352986D01*
X137332303Y-106310845D01*
X137240287Y-106262272D01*
X137115151Y-106203790D01*
X137032268Y-106171975D01*
X136984420Y-106174025D01*
X136962063Y-106216051D01*
X136955649Y-106304162D01*
X136955632Y-106444469D01*
X136954917Y-106531081D01*
X136951635Y-106638041D01*
X136946300Y-106711250D01*
X136939585Y-106738391D01*
X136937790Y-106738206D01*
X136898982Y-106723498D01*
X136834709Y-106692456D01*
X136745880Y-106646521D01*
X136756436Y-106232628D01*
X136757171Y-106205179D01*
X136765555Y-106012517D01*
X136780366Y-105867309D01*
X136804629Y-105759887D01*
X136841364Y-105680584D01*
X136893597Y-105619730D01*
X136964348Y-105567658D01*
X136965657Y-105566842D01*
X137080056Y-105524360D01*
X137212365Y-105517184D01*
X137339995Y-105543674D01*
G36*
X137339995Y-105543674D02*
G01*
X137440355Y-105602191D01*
X137484505Y-105647784D01*
X137569347Y-105784072D01*
X137597931Y-105932658D01*
X137597931Y-106034882D01*
X137503963Y-105995372D01*
X137438977Y-105955504D01*
X137387763Y-105872734D01*
X137382504Y-105855669D01*
X137325903Y-105768724D01*
X137240594Y-105721758D01*
X137142641Y-105719741D01*
X137048106Y-105767644D01*
X137033993Y-105779998D01*
X136986797Y-105833683D01*
X136979003Y-105880488D01*
X137014706Y-105926446D01*
X137098003Y-105977588D01*
X137232988Y-106039948D01*
X137242118Y-106043897D01*
X137391969Y-106113772D01*
X137494316Y-106175672D01*
X137557320Y-106237476D01*
X137589138Y-106307062D01*
X137597931Y-106392308D01*
X137586409Y-106486816D01*
X137528228Y-106607785D01*
X137425875Y-106694688D01*
X137351843Y-106720778D01*
X137247367Y-106735055D01*
X137145917Y-106732006D01*
X137073472Y-106710467D01*
X137065777Y-106705104D01*
X137045341Y-106667632D01*
X137059522Y-106601591D01*
X137084161Y-106549753D01*
X137123670Y-106528172D01*
X137198602Y-106529246D01*
X137302630Y-106523055D01*
X137370605Y-106480311D01*
X137393563Y-106401189D01*
X137393542Y-106398916D01*
X137379629Y-106352986D01*
X137332303Y-106310845D01*
X137240287Y-106262272D01*
X137115151Y-106203790D01*
X137032268Y-106171975D01*
X136984420Y-106174025D01*
X136962063Y-106216051D01*
X136955649Y-106304162D01*
X136955632Y-106444469D01*
X136954917Y-106531081D01*
X136951635Y-106638041D01*
X136946300Y-106711250D01*
X136939585Y-106738391D01*
X136937790Y-106738206D01*
X136898982Y-106723498D01*
X136834709Y-106692456D01*
X136745880Y-106646521D01*
X136756436Y-106232628D01*
X136757171Y-106205179D01*
X136765555Y-106012517D01*
X136780366Y-105867309D01*
X136804629Y-105759887D01*
X136841364Y-105680584D01*
X136893597Y-105619730D01*
X136964348Y-105567658D01*
X136965657Y-105566842D01*
X137080056Y-105524360D01*
X137212365Y-105517184D01*
X137339995Y-105543674D01*
G37*
X143728965Y-106096092D02*
X143728938Y-106127744D01*
X143727355Y-106268918D01*
X143721916Y-106367285D01*
X143710643Y-106435990D01*
X143691561Y-106488181D01*
X143662694Y-106537004D01*
X143655592Y-106547135D01*
X143580444Y-106627012D01*
X143494820Y-106687253D01*
X143450852Y-106706802D01*
X143292861Y-106739408D01*
X143136613Y-106718317D01*
X142992618Y-106646249D01*
X142871385Y-106525922D01*
X142861150Y-106509803D01*
X142827847Y-106416205D01*
X142805405Y-106285879D01*
X142794516Y-106135371D01*
X142795740Y-105996147D01*
X143090384Y-105996147D01*
X143092706Y-106189020D01*
X143093639Y-106201433D01*
X143107242Y-106307857D01*
X143131465Y-106375346D01*
X143172365Y-106421584D01*
X143240941Y-106464895D01*
X143308764Y-106467172D01*
X143378621Y-106417241D01*
X143390771Y-106404102D01*
X143414575Y-106364785D01*
X143428628Y-106307674D01*
X143435313Y-106219256D01*
X143437011Y-106086019D01*
X143434101Y-105961222D01*
X143419582Y-105842326D01*
X143389610Y-105767184D01*
X143340589Y-105727893D01*
X143268924Y-105716552D01*
X143241632Y-105718807D01*
X143165176Y-105760160D01*
X143114650Y-105852900D01*
X143090384Y-105996147D01*
X142795740Y-105996147D01*
X142795871Y-105981227D01*
X142810161Y-105839992D01*
X142838075Y-105728213D01*
X142873949Y-105653766D01*
X142974939Y-105537968D01*
X143111779Y-105466015D01*
X143279283Y-105441281D01*
X143324019Y-105442619D01*
X143455758Y-105470008D01*
X143563968Y-105539007D01*
X143663276Y-105657864D01*
X143669184Y-105666681D01*
X143695921Y-105714108D01*
X143713312Y-105767714D01*
X143723312Y-105840549D01*
X143727878Y-105945659D01*
X143728893Y-106086019D01*
X143728965Y-106096092D01*
G36*
X143728965Y-106096092D02*
G01*
X143728938Y-106127744D01*
X143727355Y-106268918D01*
X143721916Y-106367285D01*
X143710643Y-106435990D01*
X143691561Y-106488181D01*
X143662694Y-106537004D01*
X143655592Y-106547135D01*
X143580444Y-106627012D01*
X143494820Y-106687253D01*
X143450852Y-106706802D01*
X143292861Y-106739408D01*
X143136613Y-106718317D01*
X142992618Y-106646249D01*
X142871385Y-106525922D01*
X142861150Y-106509803D01*
X142827847Y-106416205D01*
X142805405Y-106285879D01*
X142794516Y-106135371D01*
X142795740Y-105996147D01*
X143090384Y-105996147D01*
X143092706Y-106189020D01*
X143093639Y-106201433D01*
X143107242Y-106307857D01*
X143131465Y-106375346D01*
X143172365Y-106421584D01*
X143240941Y-106464895D01*
X143308764Y-106467172D01*
X143378621Y-106417241D01*
X143390771Y-106404102D01*
X143414575Y-106364785D01*
X143428628Y-106307674D01*
X143435313Y-106219256D01*
X143437011Y-106086019D01*
X143434101Y-105961222D01*
X143419582Y-105842326D01*
X143389610Y-105767184D01*
X143340589Y-105727893D01*
X143268924Y-105716552D01*
X143241632Y-105718807D01*
X143165176Y-105760160D01*
X143114650Y-105852900D01*
X143090384Y-105996147D01*
X142795740Y-105996147D01*
X142795871Y-105981227D01*
X142810161Y-105839992D01*
X142838075Y-105728213D01*
X142873949Y-105653766D01*
X142974939Y-105537968D01*
X143111779Y-105466015D01*
X143279283Y-105441281D01*
X143324019Y-105442619D01*
X143455758Y-105470008D01*
X143563968Y-105539007D01*
X143663276Y-105657864D01*
X143669184Y-105666681D01*
X143695921Y-105714108D01*
X143713312Y-105767714D01*
X143723312Y-105840549D01*
X143727878Y-105945659D01*
X143728893Y-106086019D01*
X143728965Y-106096092D01*
G37*
X136370872Y-105555536D02*
X136380090Y-105560638D01*
X136455381Y-105619080D01*
X136522698Y-105694215D01*
X136534439Y-105711196D01*
X136556883Y-105750825D01*
X136572918Y-105797858D01*
X136583945Y-105862492D01*
X136591365Y-105954923D01*
X136596579Y-106085349D01*
X136600989Y-106263965D01*
X136601614Y-106294162D01*
X136603620Y-106489941D01*
X136600792Y-106628603D01*
X136593088Y-106711103D01*
X136580466Y-106738391D01*
X136542267Y-106730220D01*
X136477374Y-106705463D01*
X136462094Y-106698223D01*
X136438227Y-106681835D01*
X136421769Y-106654893D01*
X136411005Y-106607833D01*
X136404219Y-106531088D01*
X136399693Y-106415095D01*
X136395713Y-106250287D01*
X136394622Y-106202112D01*
X136390407Y-106049960D01*
X136384936Y-105943476D01*
X136376554Y-105872565D01*
X136363606Y-105827129D01*
X136344439Y-105797072D01*
X136317398Y-105772296D01*
X136237337Y-105728861D01*
X136138846Y-105720498D01*
X136050719Y-105753734D01*
X135987314Y-105822548D01*
X135962988Y-105920920D01*
X135962311Y-105947658D01*
X135949024Y-105996065D01*
X135909796Y-106003450D01*
X135832983Y-105974624D01*
X135815192Y-105965378D01*
X135767109Y-105911006D01*
X135766157Y-105830161D01*
X135811968Y-105718352D01*
X135853990Y-105657419D01*
X135961435Y-105570859D01*
X136094057Y-105521920D01*
X136235867Y-105515260D01*
X136370872Y-105555536D01*
G36*
X136370872Y-105555536D02*
G01*
X136380090Y-105560638D01*
X136455381Y-105619080D01*
X136522698Y-105694215D01*
X136534439Y-105711196D01*
X136556883Y-105750825D01*
X136572918Y-105797858D01*
X136583945Y-105862492D01*
X136591365Y-105954923D01*
X136596579Y-106085349D01*
X136600989Y-106263965D01*
X136601614Y-106294162D01*
X136603620Y-106489941D01*
X136600792Y-106628603D01*
X136593088Y-106711103D01*
X136580466Y-106738391D01*
X136542267Y-106730220D01*
X136477374Y-106705463D01*
X136462094Y-106698223D01*
X136438227Y-106681835D01*
X136421769Y-106654893D01*
X136411005Y-106607833D01*
X136404219Y-106531088D01*
X136399693Y-106415095D01*
X136395713Y-106250287D01*
X136394622Y-106202112D01*
X136390407Y-106049960D01*
X136384936Y-105943476D01*
X136376554Y-105872565D01*
X136363606Y-105827129D01*
X136344439Y-105797072D01*
X136317398Y-105772296D01*
X136237337Y-105728861D01*
X136138846Y-105720498D01*
X136050719Y-105753734D01*
X135987314Y-105822548D01*
X135962988Y-105920920D01*
X135962311Y-105947658D01*
X135949024Y-105996065D01*
X135909796Y-106003450D01*
X135832983Y-105974624D01*
X135815192Y-105965378D01*
X135767109Y-105911006D01*
X135766157Y-105830161D01*
X135811968Y-105718352D01*
X135853990Y-105657419D01*
X135961435Y-105570859D01*
X136094057Y-105521920D01*
X136235867Y-105515260D01*
X136370872Y-105555536D01*
G37*
X138524885Y-105118997D02*
X138619770Y-105159020D01*
X138619770Y-105948706D01*
X138619769Y-105957920D01*
X138619377Y-106165083D01*
X138618329Y-106351432D01*
X138616722Y-106509453D01*
X138614655Y-106631630D01*
X138612225Y-106710448D01*
X138609529Y-106738391D01*
X138608475Y-106738297D01*
X138572647Y-106728144D01*
X138507345Y-106706339D01*
X138415402Y-106674288D01*
X138415402Y-106262991D01*
X138414818Y-106101385D01*
X138412104Y-105984177D01*
X138405858Y-105904415D01*
X138394680Y-105851531D01*
X138377168Y-105814957D01*
X138351922Y-105784123D01*
X138334710Y-105767725D01*
X138241636Y-105722307D01*
X138139051Y-105726328D01*
X138045043Y-105780032D01*
X138031358Y-105793359D01*
X138009439Y-105821032D01*
X137994440Y-105857614D01*
X137985053Y-105913000D01*
X137979968Y-105997088D01*
X137977877Y-106119773D01*
X137977471Y-106290951D01*
X137977276Y-106377769D01*
X137976010Y-106520565D01*
X137973761Y-106634923D01*
X137970758Y-106710860D01*
X137967230Y-106738391D01*
X137966176Y-106738297D01*
X137930348Y-106728144D01*
X137865046Y-106706339D01*
X137773103Y-106674288D01*
X137773149Y-106261109D01*
X137773218Y-106224326D01*
X137777081Y-106032580D01*
X137788950Y-105887586D01*
X137811725Y-105779510D01*
X137848307Y-105698519D01*
X137901595Y-105634778D01*
X137974490Y-105578455D01*
X138045586Y-105543199D01*
X138159255Y-105515946D01*
X138271060Y-105514398D01*
X138357011Y-105540910D01*
X138363473Y-105544571D01*
X138383401Y-105544179D01*
X138397019Y-105513506D01*
X138406846Y-105443188D01*
X138415402Y-105323857D01*
X138430000Y-105078973D01*
X138524885Y-105118997D01*
G36*
X138524885Y-105118997D02*
G01*
X138619770Y-105159020D01*
X138619770Y-105948706D01*
X138619769Y-105957920D01*
X138619377Y-106165083D01*
X138618329Y-106351432D01*
X138616722Y-106509453D01*
X138614655Y-106631630D01*
X138612225Y-106710448D01*
X138609529Y-106738391D01*
X138608475Y-106738297D01*
X138572647Y-106728144D01*
X138507345Y-106706339D01*
X138415402Y-106674288D01*
X138415402Y-106262991D01*
X138414818Y-106101385D01*
X138412104Y-105984177D01*
X138405858Y-105904415D01*
X138394680Y-105851531D01*
X138377168Y-105814957D01*
X138351922Y-105784123D01*
X138334710Y-105767725D01*
X138241636Y-105722307D01*
X138139051Y-105726328D01*
X138045043Y-105780032D01*
X138031358Y-105793359D01*
X138009439Y-105821032D01*
X137994440Y-105857614D01*
X137985053Y-105913000D01*
X137979968Y-105997088D01*
X137977877Y-106119773D01*
X137977471Y-106290951D01*
X137977276Y-106377769D01*
X137976010Y-106520565D01*
X137973761Y-106634923D01*
X137970758Y-106710860D01*
X137967230Y-106738391D01*
X137966176Y-106738297D01*
X137930348Y-106728144D01*
X137865046Y-106706339D01*
X137773103Y-106674288D01*
X137773149Y-106261109D01*
X137773218Y-106224326D01*
X137777081Y-106032580D01*
X137788950Y-105887586D01*
X137811725Y-105779510D01*
X137848307Y-105698519D01*
X137901595Y-105634778D01*
X137974490Y-105578455D01*
X138045586Y-105543199D01*
X138159255Y-105515946D01*
X138271060Y-105514398D01*
X138357011Y-105540910D01*
X138363473Y-105544571D01*
X138383401Y-105544179D01*
X138397019Y-105513506D01*
X138406846Y-105443188D01*
X138415402Y-105323857D01*
X138430000Y-105078973D01*
X138524885Y-105118997D01*
G37*
X141509452Y-106013329D02*
X141500168Y-106234639D01*
X141494926Y-106281526D01*
X141455868Y-106448409D01*
X141385290Y-106575326D01*
X141277955Y-106672602D01*
X141271888Y-106676616D01*
X141135440Y-106733706D01*
X140992973Y-106738786D01*
X140855696Y-106695311D01*
X140734819Y-106606734D01*
X140641552Y-106476509D01*
X140639986Y-106473369D01*
X140608993Y-106392501D01*
X140586292Y-106300593D01*
X140574250Y-106214311D01*
X140575237Y-106150321D01*
X140591623Y-106125287D01*
X140606179Y-106126809D01*
X140675792Y-106154496D01*
X140754697Y-106205409D01*
X140821820Y-106264343D01*
X140856087Y-106316094D01*
X140891707Y-106386291D01*
X140964711Y-106450138D01*
X141049485Y-106475632D01*
X141080558Y-106468261D01*
X141141891Y-106431154D01*
X141195315Y-106379644D01*
X141218161Y-106332913D01*
X141218154Y-106332740D01*
X141192233Y-106311280D01*
X141123127Y-106272565D01*
X141021249Y-106222037D01*
X140897011Y-106165134D01*
X140896328Y-106164833D01*
X140761355Y-106104738D01*
X140670884Y-106061440D01*
X140616039Y-106028179D01*
X140587944Y-105998194D01*
X140577724Y-105964726D01*
X140576503Y-105921015D01*
X140584996Y-105838244D01*
X140873219Y-105838244D01*
X140902970Y-105864265D01*
X140977101Y-105903256D01*
X140979274Y-105904359D01*
X141066733Y-105946009D01*
X141144974Y-105979235D01*
X141194611Y-105993291D01*
X141214521Y-105974503D01*
X141218161Y-105910124D01*
X141203035Y-105830001D01*
X141150597Y-105757189D01*
X141074677Y-105719439D01*
X140990040Y-105723251D01*
X140911447Y-105775121D01*
X140880555Y-105810965D01*
X140873219Y-105838244D01*
X140584996Y-105838244D01*
X140587251Y-105816265D01*
X140640389Y-105673949D01*
X140729342Y-105562111D01*
X140844448Y-105484676D01*
X140976045Y-105445568D01*
X141114472Y-105448711D01*
X141250065Y-105498030D01*
X141373164Y-105597447D01*
X141441366Y-105695829D01*
X141490356Y-105836261D01*
X141498322Y-105910124D01*
X141509452Y-106013329D01*
G36*
X141509452Y-106013329D02*
G01*
X141500168Y-106234639D01*
X141494926Y-106281526D01*
X141455868Y-106448409D01*
X141385290Y-106575326D01*
X141277955Y-106672602D01*
X141271888Y-106676616D01*
X141135440Y-106733706D01*
X140992973Y-106738786D01*
X140855696Y-106695311D01*
X140734819Y-106606734D01*
X140641552Y-106476509D01*
X140639986Y-106473369D01*
X140608993Y-106392501D01*
X140586292Y-106300593D01*
X140574250Y-106214311D01*
X140575237Y-106150321D01*
X140591623Y-106125287D01*
X140606179Y-106126809D01*
X140675792Y-106154496D01*
X140754697Y-106205409D01*
X140821820Y-106264343D01*
X140856087Y-106316094D01*
X140891707Y-106386291D01*
X140964711Y-106450138D01*
X141049485Y-106475632D01*
X141080558Y-106468261D01*
X141141891Y-106431154D01*
X141195315Y-106379644D01*
X141218161Y-106332913D01*
X141218154Y-106332740D01*
X141192233Y-106311280D01*
X141123127Y-106272565D01*
X141021249Y-106222037D01*
X140897011Y-106165134D01*
X140896328Y-106164833D01*
X140761355Y-106104738D01*
X140670884Y-106061440D01*
X140616039Y-106028179D01*
X140587944Y-105998194D01*
X140577724Y-105964726D01*
X140576503Y-105921015D01*
X140584996Y-105838244D01*
X140873219Y-105838244D01*
X140902970Y-105864265D01*
X140977101Y-105903256D01*
X140979274Y-105904359D01*
X141066733Y-105946009D01*
X141144974Y-105979235D01*
X141194611Y-105993291D01*
X141214521Y-105974503D01*
X141218161Y-105910124D01*
X141203035Y-105830001D01*
X141150597Y-105757189D01*
X141074677Y-105719439D01*
X140990040Y-105723251D01*
X140911447Y-105775121D01*
X140880555Y-105810965D01*
X140873219Y-105838244D01*
X140584996Y-105838244D01*
X140587251Y-105816265D01*
X140640389Y-105673949D01*
X140729342Y-105562111D01*
X140844448Y-105484676D01*
X140976045Y-105445568D01*
X141114472Y-105448711D01*
X141250065Y-105498030D01*
X141373164Y-105597447D01*
X141441366Y-105695829D01*
X141490356Y-105836261D01*
X141498322Y-105910124D01*
X141509452Y-106013329D01*
G37*
X133071628Y-105514810D02*
X133134194Y-105530702D01*
X133192446Y-105570322D01*
X133267418Y-105644076D01*
X133315633Y-105696163D01*
X133365858Y-105763786D01*
X133388510Y-105827168D01*
X133393793Y-105907584D01*
X133393793Y-106039201D01*
X133304035Y-105992785D01*
X133232904Y-105936225D01*
X133184183Y-105860040D01*
X133175814Y-105839326D01*
X133112056Y-105759041D01*
X133023470Y-105718784D01*
X132926873Y-105722702D01*
X132839080Y-105774943D01*
X132801936Y-105817370D01*
X132780300Y-105871647D01*
X132803461Y-105919954D01*
X132875479Y-105968545D01*
X133000410Y-106023677D01*
X133019368Y-106031292D01*
X133133105Y-106081125D01*
X133230706Y-106130265D01*
X133292803Y-106169080D01*
X133354999Y-106238411D01*
X133396346Y-106349051D01*
X133391957Y-106467782D01*
X133343037Y-106580148D01*
X133250797Y-106671690D01*
X133176110Y-106710658D01*
X133031832Y-106737944D01*
X132951656Y-106734263D01*
X132877435Y-106714360D01*
X132848960Y-106672598D01*
X132859608Y-106603820D01*
X132862705Y-106594726D01*
X132887268Y-106546498D01*
X132928165Y-106528245D01*
X133006079Y-106529466D01*
X133061091Y-106531126D01*
X133125459Y-106516881D01*
X133169561Y-106474292D01*
X133194680Y-106421857D01*
X133197481Y-106366929D01*
X133197352Y-106366608D01*
X133164785Y-106336928D01*
X133095083Y-106293735D01*
X133004898Y-106245461D01*
X132910883Y-106200539D01*
X132829689Y-106167402D01*
X132777968Y-106154483D01*
X132770274Y-106167134D01*
X132760588Y-106226668D01*
X132753954Y-106323887D01*
X132751494Y-106446437D01*
X132750922Y-106531263D01*
X132748225Y-106638094D01*
X132743821Y-106711257D01*
X132738270Y-106738391D01*
X132709254Y-106729272D01*
X132650684Y-106704509D01*
X132576322Y-106670627D01*
X132576322Y-106235933D01*
X132576797Y-106124508D01*
X132581293Y-105955301D01*
X132592747Y-105829769D01*
X132613828Y-105738363D01*
X132647206Y-105671532D01*
X132695550Y-105619726D01*
X132761531Y-105573393D01*
X132845594Y-105535156D01*
X133000807Y-105512184D01*
X133071628Y-105514810D01*
G36*
X133071628Y-105514810D02*
G01*
X133134194Y-105530702D01*
X133192446Y-105570322D01*
X133267418Y-105644076D01*
X133315633Y-105696163D01*
X133365858Y-105763786D01*
X133388510Y-105827168D01*
X133393793Y-105907584D01*
X133393793Y-106039201D01*
X133304035Y-105992785D01*
X133232904Y-105936225D01*
X133184183Y-105860040D01*
X133175814Y-105839326D01*
X133112056Y-105759041D01*
X133023470Y-105718784D01*
X132926873Y-105722702D01*
X132839080Y-105774943D01*
X132801936Y-105817370D01*
X132780300Y-105871647D01*
X132803461Y-105919954D01*
X132875479Y-105968545D01*
X133000410Y-106023677D01*
X133019368Y-106031292D01*
X133133105Y-106081125D01*
X133230706Y-106130265D01*
X133292803Y-106169080D01*
X133354999Y-106238411D01*
X133396346Y-106349051D01*
X133391957Y-106467782D01*
X133343037Y-106580148D01*
X133250797Y-106671690D01*
X133176110Y-106710658D01*
X133031832Y-106737944D01*
X132951656Y-106734263D01*
X132877435Y-106714360D01*
X132848960Y-106672598D01*
X132859608Y-106603820D01*
X132862705Y-106594726D01*
X132887268Y-106546498D01*
X132928165Y-106528245D01*
X133006079Y-106529466D01*
X133061091Y-106531126D01*
X133125459Y-106516881D01*
X133169561Y-106474292D01*
X133194680Y-106421857D01*
X133197481Y-106366929D01*
X133197352Y-106366608D01*
X133164785Y-106336928D01*
X133095083Y-106293735D01*
X133004898Y-106245461D01*
X132910883Y-106200539D01*
X132829689Y-106167402D01*
X132777968Y-106154483D01*
X132770274Y-106167134D01*
X132760588Y-106226668D01*
X132753954Y-106323887D01*
X132751494Y-106446437D01*
X132750922Y-106531263D01*
X132748225Y-106638094D01*
X132743821Y-106711257D01*
X132738270Y-106738391D01*
X132709254Y-106729272D01*
X132650684Y-106704509D01*
X132576322Y-106670627D01*
X132576322Y-106235933D01*
X132576797Y-106124508D01*
X132581293Y-105955301D01*
X132592747Y-105829769D01*
X132613828Y-105738363D01*
X132647206Y-105671532D01*
X132695550Y-105619726D01*
X132761531Y-105573393D01*
X132845594Y-105535156D01*
X133000807Y-105512184D01*
X133071628Y-105514810D01*
G37*
X131408313Y-106131136D02*
X131407744Y-106208946D01*
X131400612Y-106362254D01*
X131381948Y-106474441D01*
X131347537Y-106557554D01*
X131293162Y-106623641D01*
X131214610Y-106684747D01*
X131164630Y-106712535D01*
X131084513Y-106731251D01*
X130971970Y-106729774D01*
X130909050Y-106723845D01*
X130833153Y-106705742D01*
X130772487Y-106666391D01*
X130701912Y-106593066D01*
X130692482Y-106582356D01*
X130629034Y-106499938D01*
X130598762Y-106428156D01*
X130591034Y-106343034D01*
X130591034Y-106217946D01*
X130678447Y-106250940D01*
X130742175Y-106289509D01*
X130797567Y-106380008D01*
X130809131Y-106408983D01*
X130873788Y-106491041D01*
X130961804Y-106532347D01*
X131057637Y-106528633D01*
X131145747Y-106475632D01*
X131176028Y-106442582D01*
X131203489Y-106392720D01*
X131194899Y-106347416D01*
X131145463Y-106300790D01*
X131050389Y-106246958D01*
X130904885Y-106180039D01*
X130605632Y-106049056D01*
X130597691Y-105919298D01*
X130600676Y-105836649D01*
X130795652Y-105836649D01*
X130810453Y-105887815D01*
X130877797Y-105942442D01*
X131000027Y-106004597D01*
X131020253Y-106013601D01*
X131116970Y-106055493D01*
X131189334Y-106084958D01*
X131222961Y-106096092D01*
X131228056Y-106087896D01*
X131230101Y-106037853D01*
X131222812Y-105957414D01*
X131204452Y-105878753D01*
X131147188Y-105779651D01*
X131064524Y-105723808D01*
X130965784Y-105716250D01*
X130860289Y-105762000D01*
X130831053Y-105784876D01*
X130795652Y-105836649D01*
X130600676Y-105836649D01*
X130601196Y-105822255D01*
X130645336Y-105699617D01*
X130701050Y-105632034D01*
X130816561Y-105556540D01*
X130953588Y-105518403D01*
X131095237Y-105521422D01*
X131224617Y-105569393D01*
X131253099Y-105587813D01*
X131318428Y-105644811D01*
X131363106Y-105716916D01*
X131390641Y-105814853D01*
X131404541Y-105949351D01*
X131406378Y-106037853D01*
X131408313Y-106131136D01*
G36*
X131408313Y-106131136D02*
G01*
X131407744Y-106208946D01*
X131400612Y-106362254D01*
X131381948Y-106474441D01*
X131347537Y-106557554D01*
X131293162Y-106623641D01*
X131214610Y-106684747D01*
X131164630Y-106712535D01*
X131084513Y-106731251D01*
X130971970Y-106729774D01*
X130909050Y-106723845D01*
X130833153Y-106705742D01*
X130772487Y-106666391D01*
X130701912Y-106593066D01*
X130692482Y-106582356D01*
X130629034Y-106499938D01*
X130598762Y-106428156D01*
X130591034Y-106343034D01*
X130591034Y-106217946D01*
X130678447Y-106250940D01*
X130742175Y-106289509D01*
X130797567Y-106380008D01*
X130809131Y-106408983D01*
X130873788Y-106491041D01*
X130961804Y-106532347D01*
X131057637Y-106528633D01*
X131145747Y-106475632D01*
X131176028Y-106442582D01*
X131203489Y-106392720D01*
X131194899Y-106347416D01*
X131145463Y-106300790D01*
X131050389Y-106246958D01*
X130904885Y-106180039D01*
X130605632Y-106049056D01*
X130597691Y-105919298D01*
X130600676Y-105836649D01*
X130795652Y-105836649D01*
X130810453Y-105887815D01*
X130877797Y-105942442D01*
X131000027Y-106004597D01*
X131020253Y-106013601D01*
X131116970Y-106055493D01*
X131189334Y-106084958D01*
X131222961Y-106096092D01*
X131228056Y-106087896D01*
X131230101Y-106037853D01*
X131222812Y-105957414D01*
X131204452Y-105878753D01*
X131147188Y-105779651D01*
X131064524Y-105723808D01*
X130965784Y-105716250D01*
X130860289Y-105762000D01*
X130831053Y-105784876D01*
X130795652Y-105836649D01*
X130600676Y-105836649D01*
X130601196Y-105822255D01*
X130645336Y-105699617D01*
X130701050Y-105632034D01*
X130816561Y-105556540D01*
X130953588Y-105518403D01*
X131095237Y-105521422D01*
X131224617Y-105569393D01*
X131253099Y-105587813D01*
X131318428Y-105644811D01*
X131363106Y-105716916D01*
X131390641Y-105814853D01*
X131404541Y-105949351D01*
X131406378Y-106037853D01*
X131408313Y-106131136D01*
G37*
X131926724Y-110306410D02*
X132074401Y-110307682D01*
X132250911Y-110313493D01*
X132409628Y-110324913D01*
X132560342Y-110342935D01*
X132712843Y-110368552D01*
X132876918Y-110402757D01*
X133009742Y-110435195D01*
X133349661Y-110542522D01*
X133680815Y-110681816D01*
X133999965Y-110851051D01*
X134303870Y-111048201D01*
X134589289Y-111271241D01*
X134852981Y-111518147D01*
X135091706Y-111786891D01*
X135096234Y-111792513D01*
X135310079Y-112086275D01*
X135496723Y-112401024D01*
X135655262Y-112734616D01*
X135784791Y-113084910D01*
X135884407Y-113449763D01*
X135953203Y-113827034D01*
X135961207Y-113903754D01*
X135968056Y-114018354D01*
X135972223Y-114151598D01*
X135973712Y-114294715D01*
X135972524Y-114438933D01*
X135968663Y-114575481D01*
X135962130Y-114695588D01*
X135952929Y-114790482D01*
X135949559Y-114815295D01*
X135881662Y-115183323D01*
X135781955Y-115542747D01*
X135651774Y-115890408D01*
X135492450Y-116223149D01*
X135305316Y-116537810D01*
X135091706Y-116831232D01*
X135043313Y-116889827D01*
X134866130Y-117083315D01*
X134666083Y-117274584D01*
X134451854Y-117456143D01*
X134232124Y-117620497D01*
X134015574Y-117760152D01*
X133941684Y-117802435D01*
X133659396Y-117944643D01*
X133360486Y-118067548D01*
X133053337Y-118168305D01*
X132746335Y-118244069D01*
X132447862Y-118291997D01*
X132438506Y-118292972D01*
X132374328Y-118297548D01*
X132284315Y-118301711D01*
X132176089Y-118305208D01*
X132057271Y-118307781D01*
X131935483Y-118309175D01*
X131554483Y-118311448D01*
X131554483Y-117076420D01*
X131935483Y-117076451D01*
X132029152Y-117076273D01*
X132142619Y-117075088D01*
X132233040Y-117072351D01*
X132307552Y-117067552D01*
X132373296Y-117060183D01*
X132437412Y-117049735D01*
X132507038Y-117035697D01*
X132514587Y-117034072D01*
X132823795Y-116949874D01*
X133116493Y-116835227D01*
X133391360Y-116691021D01*
X133647075Y-116518148D01*
X133882318Y-116317496D01*
X134095767Y-116089958D01*
X134286101Y-115836423D01*
X134298623Y-115817418D01*
X134373273Y-115692423D01*
X134447792Y-115549843D01*
X134518099Y-115398873D01*
X134580113Y-115248705D01*
X134629752Y-115108533D01*
X134662935Y-114987551D01*
X134675336Y-114930620D01*
X132342759Y-114930620D01*
X132342759Y-113686896D01*
X134675336Y-113686896D01*
X134662935Y-113629965D01*
X134654866Y-113596073D01*
X134618483Y-113475709D01*
X134567759Y-113338281D01*
X134506644Y-113192844D01*
X134439088Y-113048452D01*
X134369041Y-112914160D01*
X134300452Y-112799022D01*
X134267827Y-112749936D01*
X134082104Y-112507687D01*
X133870776Y-112287864D01*
X133636178Y-112092059D01*
X133380644Y-111921860D01*
X133106507Y-111778857D01*
X132816101Y-111664640D01*
X132511761Y-111580798D01*
X132466873Y-111571360D01*
X132405037Y-111560370D01*
X132342155Y-111552408D01*
X132271431Y-111547004D01*
X132186068Y-111543685D01*
X132079270Y-111541980D01*
X131944240Y-111541417D01*
X131554480Y-111541034D01*
X131554482Y-110923551D01*
X131554483Y-110306069D01*
X131926724Y-110306410D01*
G36*
X131926724Y-110306410D02*
G01*
X132074401Y-110307682D01*
X132250911Y-110313493D01*
X132409628Y-110324913D01*
X132560342Y-110342935D01*
X132712843Y-110368552D01*
X132876918Y-110402757D01*
X133009742Y-110435195D01*
X133349661Y-110542522D01*
X133680815Y-110681816D01*
X133999965Y-110851051D01*
X134303870Y-111048201D01*
X134589289Y-111271241D01*
X134852981Y-111518147D01*
X135091706Y-111786891D01*
X135096234Y-111792513D01*
X135310079Y-112086275D01*
X135496723Y-112401024D01*
X135655262Y-112734616D01*
X135784791Y-113084910D01*
X135884407Y-113449763D01*
X135953203Y-113827034D01*
X135961207Y-113903754D01*
X135968056Y-114018354D01*
X135972223Y-114151598D01*
X135973712Y-114294715D01*
X135972524Y-114438933D01*
X135968663Y-114575481D01*
X135962130Y-114695588D01*
X135952929Y-114790482D01*
X135949559Y-114815295D01*
X135881662Y-115183323D01*
X135781955Y-115542747D01*
X135651774Y-115890408D01*
X135492450Y-116223149D01*
X135305316Y-116537810D01*
X135091706Y-116831232D01*
X135043313Y-116889827D01*
X134866130Y-117083315D01*
X134666083Y-117274584D01*
X134451854Y-117456143D01*
X134232124Y-117620497D01*
X134015574Y-117760152D01*
X133941684Y-117802435D01*
X133659396Y-117944643D01*
X133360486Y-118067548D01*
X133053337Y-118168305D01*
X132746335Y-118244069D01*
X132447862Y-118291997D01*
X132438506Y-118292972D01*
X132374328Y-118297548D01*
X132284315Y-118301711D01*
X132176089Y-118305208D01*
X132057271Y-118307781D01*
X131935483Y-118309175D01*
X131554483Y-118311448D01*
X131554483Y-117076420D01*
X131935483Y-117076451D01*
X132029152Y-117076273D01*
X132142619Y-117075088D01*
X132233040Y-117072351D01*
X132307552Y-117067552D01*
X132373296Y-117060183D01*
X132437412Y-117049735D01*
X132507038Y-117035697D01*
X132514587Y-117034072D01*
X132823795Y-116949874D01*
X133116493Y-116835227D01*
X133391360Y-116691021D01*
X133647075Y-116518148D01*
X133882318Y-116317496D01*
X134095767Y-116089958D01*
X134286101Y-115836423D01*
X134298623Y-115817418D01*
X134373273Y-115692423D01*
X134447792Y-115549843D01*
X134518099Y-115398873D01*
X134580113Y-115248705D01*
X134629752Y-115108533D01*
X134662935Y-114987551D01*
X134675336Y-114930620D01*
X132342759Y-114930620D01*
X132342759Y-113686896D01*
X134675336Y-113686896D01*
X134662935Y-113629965D01*
X134654866Y-113596073D01*
X134618483Y-113475709D01*
X134567759Y-113338281D01*
X134506644Y-113192844D01*
X134439088Y-113048452D01*
X134369041Y-112914160D01*
X134300452Y-112799022D01*
X134267827Y-112749936D01*
X134082104Y-112507687D01*
X133870776Y-112287864D01*
X133636178Y-112092059D01*
X133380644Y-111921860D01*
X133106507Y-111778857D01*
X132816101Y-111664640D01*
X132511761Y-111580798D01*
X132466873Y-111571360D01*
X132405037Y-111560370D01*
X132342155Y-111552408D01*
X132271431Y-111547004D01*
X132186068Y-111543685D01*
X132079270Y-111541980D01*
X131944240Y-111541417D01*
X131554480Y-111541034D01*
X131554482Y-110923551D01*
X131554483Y-110306069D01*
X131926724Y-110306410D01*
G37*
X138780433Y-110307211D02*
X138897864Y-110309596D01*
X139013024Y-110313302D01*
X139119435Y-110318225D01*
X139210621Y-110324263D01*
X139280104Y-110331311D01*
X139532751Y-110372926D01*
X139895170Y-110461526D01*
X140244959Y-110581782D01*
X140580311Y-110732636D01*
X140899419Y-110913032D01*
X141200477Y-111121913D01*
X141481677Y-111358222D01*
X141741213Y-111620902D01*
X141977277Y-111908896D01*
X142081651Y-112055609D01*
X142276938Y-112374223D01*
X142440769Y-112708007D01*
X142572805Y-113056124D01*
X142672706Y-113417734D01*
X142740132Y-113792000D01*
X142745165Y-113834529D01*
X142754925Y-113958391D01*
X142761191Y-114103834D01*
X142763965Y-114261450D01*
X142763246Y-114421833D01*
X142759034Y-114575577D01*
X142751329Y-114713273D01*
X142740132Y-114825517D01*
X142722630Y-114943146D01*
X142645649Y-115309500D01*
X142537269Y-115662630D01*
X142398800Y-116000952D01*
X142231553Y-116322883D01*
X142036840Y-116626838D01*
X141815970Y-116911235D01*
X141570254Y-117174489D01*
X141301003Y-117415017D01*
X141009528Y-117631236D01*
X140697139Y-117821562D01*
X140365147Y-117984411D01*
X140014862Y-118118200D01*
X139907498Y-118151476D01*
X139738544Y-118197048D01*
X139563141Y-118237598D01*
X139394180Y-118270217D01*
X139244552Y-118291997D01*
X139243879Y-118292073D01*
X139183835Y-118296952D01*
X139101066Y-118301099D01*
X139001985Y-118304454D01*
X138893009Y-118306951D01*
X138780552Y-118308529D01*
X138671029Y-118309123D01*
X138570856Y-118308672D01*
X138486448Y-118307110D01*
X138424220Y-118304377D01*
X138390586Y-118300407D01*
X138351173Y-118289844D01*
X138351173Y-117075640D01*
X138714655Y-117076061D01*
X138787674Y-117075859D01*
X138953865Y-117072322D01*
X139097073Y-117063497D01*
X139225828Y-117048200D01*
X139348658Y-117025247D01*
X139474095Y-116993453D01*
X139610666Y-116951633D01*
X139853630Y-116860003D01*
X140129124Y-116723081D01*
X140385395Y-116558607D01*
X140620739Y-116368527D01*
X140833449Y-116154784D01*
X141021820Y-115919326D01*
X141184146Y-115664097D01*
X141318722Y-115391043D01*
X141423842Y-115102109D01*
X141497800Y-114799241D01*
X141499439Y-114790239D01*
X141515287Y-114671515D01*
X141525836Y-114530185D01*
X141531077Y-114375786D01*
X141531000Y-114217858D01*
X141525596Y-114065938D01*
X141514855Y-113929564D01*
X141498768Y-113818275D01*
X141472075Y-113695701D01*
X141381956Y-113391897D01*
X141261165Y-113103501D01*
X141110602Y-112832220D01*
X140931165Y-112579761D01*
X140723755Y-112347831D01*
X140645262Y-112271962D01*
X140443467Y-112101039D01*
X140228109Y-111953598D01*
X139989035Y-111822377D01*
X139888788Y-111774752D01*
X139646953Y-111676669D01*
X139407830Y-111605478D01*
X139163607Y-111559540D01*
X138906476Y-111537216D01*
X138628626Y-111536867D01*
X138351173Y-111546495D01*
X138351173Y-110327672D01*
X138390586Y-110317109D01*
X138417530Y-110312949D01*
X138479278Y-110309016D01*
X138564663Y-110306817D01*
X138667207Y-110306250D01*
X138780433Y-110307211D01*
G36*
X138780433Y-110307211D02*
G01*
X138897864Y-110309596D01*
X139013024Y-110313302D01*
X139119435Y-110318225D01*
X139210621Y-110324263D01*
X139280104Y-110331311D01*
X139532751Y-110372926D01*
X139895170Y-110461526D01*
X140244959Y-110581782D01*
X140580311Y-110732636D01*
X140899419Y-110913032D01*
X141200477Y-111121913D01*
X141481677Y-111358222D01*
X141741213Y-111620902D01*
X141977277Y-111908896D01*
X142081651Y-112055609D01*
X142276938Y-112374223D01*
X142440769Y-112708007D01*
X142572805Y-113056124D01*
X142672706Y-113417734D01*
X142740132Y-113792000D01*
X142745165Y-113834529D01*
X142754925Y-113958391D01*
X142761191Y-114103834D01*
X142763965Y-114261450D01*
X142763246Y-114421833D01*
X142759034Y-114575577D01*
X142751329Y-114713273D01*
X142740132Y-114825517D01*
X142722630Y-114943146D01*
X142645649Y-115309500D01*
X142537269Y-115662630D01*
X142398800Y-116000952D01*
X142231553Y-116322883D01*
X142036840Y-116626838D01*
X141815970Y-116911235D01*
X141570254Y-117174489D01*
X141301003Y-117415017D01*
X141009528Y-117631236D01*
X140697139Y-117821562D01*
X140365147Y-117984411D01*
X140014862Y-118118200D01*
X139907498Y-118151476D01*
X139738544Y-118197048D01*
X139563141Y-118237598D01*
X139394180Y-118270217D01*
X139244552Y-118291997D01*
X139243879Y-118292073D01*
X139183835Y-118296952D01*
X139101066Y-118301099D01*
X139001985Y-118304454D01*
X138893009Y-118306951D01*
X138780552Y-118308529D01*
X138671029Y-118309123D01*
X138570856Y-118308672D01*
X138486448Y-118307110D01*
X138424220Y-118304377D01*
X138390586Y-118300407D01*
X138351173Y-118289844D01*
X138351173Y-117075640D01*
X138714655Y-117076061D01*
X138787674Y-117075859D01*
X138953865Y-117072322D01*
X139097073Y-117063497D01*
X139225828Y-117048200D01*
X139348658Y-117025247D01*
X139474095Y-116993453D01*
X139610666Y-116951633D01*
X139853630Y-116860003D01*
X140129124Y-116723081D01*
X140385395Y-116558607D01*
X140620739Y-116368527D01*
X140833449Y-116154784D01*
X141021820Y-115919326D01*
X141184146Y-115664097D01*
X141318722Y-115391043D01*
X141423842Y-115102109D01*
X141497800Y-114799241D01*
X141499439Y-114790239D01*
X141515287Y-114671515D01*
X141525836Y-114530185D01*
X141531077Y-114375786D01*
X141531000Y-114217858D01*
X141525596Y-114065938D01*
X141514855Y-113929564D01*
X141498768Y-113818275D01*
X141472075Y-113695701D01*
X141381956Y-113391897D01*
X141261165Y-113103501D01*
X141110602Y-112832220D01*
X140931165Y-112579761D01*
X140723755Y-112347831D01*
X140645262Y-112271962D01*
X140443467Y-112101039D01*
X140228109Y-111953598D01*
X139989035Y-111822377D01*
X139888788Y-111774752D01*
X139646953Y-111676669D01*
X139407830Y-111605478D01*
X139163607Y-111559540D01*
X138906476Y-111537216D01*
X138628626Y-111536867D01*
X138351173Y-111546495D01*
X138351173Y-110327672D01*
X138390586Y-110317109D01*
X138417530Y-110312949D01*
X138479278Y-110309016D01*
X138564663Y-110306817D01*
X138667207Y-110306250D01*
X138780433Y-110307211D01*
G37*
X152228847Y-79438078D02*
X152413348Y-79455015D01*
X152584749Y-79489174D01*
X152749427Y-79541991D01*
X152913756Y-79614905D01*
X153076424Y-79708001D01*
X153250999Y-79834914D01*
X153412888Y-79981650D01*
X153558528Y-80144576D01*
X153684352Y-80320059D01*
X153786797Y-80504468D01*
X153796096Y-80524196D01*
X153873973Y-80714613D01*
X153933148Y-80912477D01*
X153974387Y-81121570D01*
X153998452Y-81345670D01*
X154006111Y-81588559D01*
X153996799Y-81839643D01*
X153967244Y-82086912D01*
X153916987Y-82318383D01*
X153845577Y-82535699D01*
X153752566Y-82740502D01*
X153637504Y-82934433D01*
X153529422Y-83082594D01*
X153380184Y-83249300D01*
X153217521Y-83392089D01*
X153041505Y-83510914D01*
X152852207Y-83605729D01*
X152649697Y-83676487D01*
X152434048Y-83723142D01*
X152431587Y-83723505D01*
X152390058Y-83727149D01*
X152327388Y-83729852D01*
X152249373Y-83731487D01*
X152161808Y-83731930D01*
X152070487Y-83731052D01*
X152006484Y-83729767D01*
X151911523Y-83726790D01*
X151835428Y-83722528D01*
X151772712Y-83716526D01*
X151717885Y-83708329D01*
X151665460Y-83697482D01*
X151606477Y-83683465D01*
X151544940Y-83667503D01*
X151489286Y-83650758D01*
X151434463Y-83631268D01*
X151375422Y-83607073D01*
X151307111Y-83576210D01*
X151224478Y-83536719D01*
X151122473Y-83486639D01*
X150840352Y-83347215D01*
X151066313Y-82976067D01*
X151095896Y-82927490D01*
X151149043Y-82840289D01*
X151196614Y-82762331D01*
X151236868Y-82696458D01*
X151268068Y-82645516D01*
X151288476Y-82612347D01*
X151296352Y-82599795D01*
X151298542Y-82600170D01*
X151316188Y-82612454D01*
X151347189Y-82637947D01*
X151386647Y-82672694D01*
X151456920Y-82732729D01*
X151582371Y-82821506D01*
X151704089Y-82883394D01*
X151792045Y-82914300D01*
X151940817Y-82945885D01*
X152086989Y-82951484D01*
X152228443Y-82931477D01*
X152363058Y-82886246D01*
X152488714Y-82816173D01*
X152603293Y-82721639D01*
X152667049Y-82652011D01*
X152756867Y-82523224D01*
X152830567Y-82373773D01*
X152888501Y-82202892D01*
X152931021Y-82009817D01*
X152932951Y-81997831D01*
X152941863Y-81920143D01*
X152948497Y-81823617D01*
X152952800Y-81714849D01*
X152954719Y-81600434D01*
X152954198Y-81486968D01*
X152951185Y-81381046D01*
X152945626Y-81289263D01*
X152937467Y-81218217D01*
X152906194Y-81057280D01*
X152853574Y-80869286D01*
X152787395Y-80704700D01*
X152707747Y-80563649D01*
X152614717Y-80446260D01*
X152508394Y-80352663D01*
X152388867Y-80282982D01*
X152256224Y-80237347D01*
X152226795Y-80231683D01*
X152153044Y-80224288D01*
X152066856Y-80221874D01*
X151977884Y-80224308D01*
X151895786Y-80231460D01*
X151830217Y-80243195D01*
X151720986Y-80280561D01*
X151594227Y-80348778D01*
X151481358Y-80438550D01*
X151461437Y-80457461D01*
X151425340Y-80490918D01*
X151399829Y-80513438D01*
X151389464Y-80520928D01*
X151386913Y-80517346D01*
X151371206Y-80494723D01*
X151342832Y-80453647D01*
X151303664Y-80396836D01*
X151255578Y-80327012D01*
X151200448Y-80246893D01*
X151140149Y-80159201D01*
X150893514Y-79800402D01*
X150948611Y-79783895D01*
X150954360Y-79782024D01*
X150991785Y-79767166D01*
X151045744Y-79743208D01*
X151109902Y-79713031D01*
X151177929Y-79679517D01*
X151207572Y-79664700D01*
X151372176Y-79588201D01*
X151523890Y-79529045D01*
X151668548Y-79485718D01*
X151811986Y-79456707D01*
X151960038Y-79440499D01*
X152118541Y-79435580D01*
X152228847Y-79438078D01*
G36*
X152228847Y-79438078D02*
G01*
X152413348Y-79455015D01*
X152584749Y-79489174D01*
X152749427Y-79541991D01*
X152913756Y-79614905D01*
X153076424Y-79708001D01*
X153250999Y-79834914D01*
X153412888Y-79981650D01*
X153558528Y-80144576D01*
X153684352Y-80320059D01*
X153786797Y-80504468D01*
X153796096Y-80524196D01*
X153873973Y-80714613D01*
X153933148Y-80912477D01*
X153974387Y-81121570D01*
X153998452Y-81345670D01*
X154006111Y-81588559D01*
X153996799Y-81839643D01*
X153967244Y-82086912D01*
X153916987Y-82318383D01*
X153845577Y-82535699D01*
X153752566Y-82740502D01*
X153637504Y-82934433D01*
X153529422Y-83082594D01*
X153380184Y-83249300D01*
X153217521Y-83392089D01*
X153041505Y-83510914D01*
X152852207Y-83605729D01*
X152649697Y-83676487D01*
X152434048Y-83723142D01*
X152431587Y-83723505D01*
X152390058Y-83727149D01*
X152327388Y-83729852D01*
X152249373Y-83731487D01*
X152161808Y-83731930D01*
X152070487Y-83731052D01*
X152006484Y-83729767D01*
X151911523Y-83726790D01*
X151835428Y-83722528D01*
X151772712Y-83716526D01*
X151717885Y-83708329D01*
X151665460Y-83697482D01*
X151606477Y-83683465D01*
X151544940Y-83667503D01*
X151489286Y-83650758D01*
X151434463Y-83631268D01*
X151375422Y-83607073D01*
X151307111Y-83576210D01*
X151224478Y-83536719D01*
X151122473Y-83486639D01*
X150840352Y-83347215D01*
X151066313Y-82976067D01*
X151095896Y-82927490D01*
X151149043Y-82840289D01*
X151196614Y-82762331D01*
X151236868Y-82696458D01*
X151268068Y-82645516D01*
X151288476Y-82612347D01*
X151296352Y-82599795D01*
X151298542Y-82600170D01*
X151316188Y-82612454D01*
X151347189Y-82637947D01*
X151386647Y-82672694D01*
X151456920Y-82732729D01*
X151582371Y-82821506D01*
X151704089Y-82883394D01*
X151792045Y-82914300D01*
X151940817Y-82945885D01*
X152086989Y-82951484D01*
X152228443Y-82931477D01*
X152363058Y-82886246D01*
X152488714Y-82816173D01*
X152603293Y-82721639D01*
X152667049Y-82652011D01*
X152756867Y-82523224D01*
X152830567Y-82373773D01*
X152888501Y-82202892D01*
X152931021Y-82009817D01*
X152932951Y-81997831D01*
X152941863Y-81920143D01*
X152948497Y-81823617D01*
X152952800Y-81714849D01*
X152954719Y-81600434D01*
X152954198Y-81486968D01*
X152951185Y-81381046D01*
X152945626Y-81289263D01*
X152937467Y-81218217D01*
X152906194Y-81057280D01*
X152853574Y-80869286D01*
X152787395Y-80704700D01*
X152707747Y-80563649D01*
X152614717Y-80446260D01*
X152508394Y-80352663D01*
X152388867Y-80282982D01*
X152256224Y-80237347D01*
X152226795Y-80231683D01*
X152153044Y-80224288D01*
X152066856Y-80221874D01*
X151977884Y-80224308D01*
X151895786Y-80231460D01*
X151830217Y-80243195D01*
X151720986Y-80280561D01*
X151594227Y-80348778D01*
X151481358Y-80438550D01*
X151461437Y-80457461D01*
X151425340Y-80490918D01*
X151399829Y-80513438D01*
X151389464Y-80520928D01*
X151386913Y-80517346D01*
X151371206Y-80494723D01*
X151342832Y-80453647D01*
X151303664Y-80396836D01*
X151255578Y-80327012D01*
X151200448Y-80246893D01*
X151140149Y-80159201D01*
X150893514Y-79800402D01*
X150948611Y-79783895D01*
X150954360Y-79782024D01*
X150991785Y-79767166D01*
X151045744Y-79743208D01*
X151109902Y-79713031D01*
X151177929Y-79679517D01*
X151207572Y-79664700D01*
X151372176Y-79588201D01*
X151523890Y-79529045D01*
X151668548Y-79485718D01*
X151811986Y-79456707D01*
X151960038Y-79440499D01*
X152118541Y-79435580D01*
X152228847Y-79438078D01*
G37*
X155341012Y-78306581D02*
X155446536Y-78332436D01*
X155546560Y-78378841D01*
X155637934Y-78445803D01*
X155717505Y-78533328D01*
X155782120Y-78641426D01*
X155799443Y-78679506D01*
X155813477Y-78718103D01*
X155821352Y-78756689D01*
X155824803Y-78804415D01*
X155825568Y-78870433D01*
X155825105Y-78925381D01*
X155822319Y-78975880D01*
X155815487Y-79015280D01*
X155802904Y-79052628D01*
X155782864Y-79096973D01*
X155777066Y-79108791D01*
X155708545Y-79217001D01*
X155622365Y-79306033D01*
X155520972Y-79373797D01*
X155406811Y-79418206D01*
X155348234Y-79430598D01*
X155229399Y-79436397D01*
X155114300Y-79417634D01*
X155006312Y-79376232D01*
X154908809Y-79314115D01*
X154825168Y-79233207D01*
X154758763Y-79135432D01*
X154712969Y-79022714D01*
X154696214Y-78930471D01*
X154694705Y-78828677D01*
X154708332Y-78729660D01*
X154736445Y-78643892D01*
X154768930Y-78582573D01*
X154841247Y-78485288D01*
X154926978Y-78408507D01*
X155022973Y-78352238D01*
X155126079Y-78316490D01*
X155233142Y-78301268D01*
X155341012Y-78306581D01*
G36*
X155341012Y-78306581D02*
G01*
X155446536Y-78332436D01*
X155546560Y-78378841D01*
X155637934Y-78445803D01*
X155717505Y-78533328D01*
X155782120Y-78641426D01*
X155799443Y-78679506D01*
X155813477Y-78718103D01*
X155821352Y-78756689D01*
X155824803Y-78804415D01*
X155825568Y-78870433D01*
X155825105Y-78925381D01*
X155822319Y-78975880D01*
X155815487Y-79015280D01*
X155802904Y-79052628D01*
X155782864Y-79096973D01*
X155777066Y-79108791D01*
X155708545Y-79217001D01*
X155622365Y-79306033D01*
X155520972Y-79373797D01*
X155406811Y-79418206D01*
X155348234Y-79430598D01*
X155229399Y-79436397D01*
X155114300Y-79417634D01*
X155006312Y-79376232D01*
X154908809Y-79314115D01*
X154825168Y-79233207D01*
X154758763Y-79135432D01*
X154712969Y-79022714D01*
X154696214Y-78930471D01*
X154694705Y-78828677D01*
X154708332Y-78729660D01*
X154736445Y-78643892D01*
X154768930Y-78582573D01*
X154841247Y-78485288D01*
X154926978Y-78408507D01*
X155022973Y-78352238D01*
X155126079Y-78316490D01*
X155233142Y-78301268D01*
X155341012Y-78306581D01*
G37*
X160057945Y-83709840D02*
X160056532Y-83816310D01*
X160054777Y-83908024D01*
X160052646Y-83986117D01*
X160050102Y-84051724D01*
X160047111Y-84105981D01*
X160043635Y-84150023D01*
X160039640Y-84184985D01*
X160035089Y-84212003D01*
X160029947Y-84232212D01*
X160024179Y-84246747D01*
X160017748Y-84256744D01*
X160010619Y-84263338D01*
X160002755Y-84267665D01*
X159994122Y-84270859D01*
X159984684Y-84274056D01*
X159974404Y-84278391D01*
X159968620Y-84280563D01*
X159958010Y-84282936D01*
X159942245Y-84285110D01*
X159920210Y-84287093D01*
X159890790Y-84288896D01*
X159852869Y-84290525D01*
X159805332Y-84291991D01*
X159747064Y-84293301D01*
X159676950Y-84294465D01*
X159593874Y-84295491D01*
X159496721Y-84296388D01*
X159384376Y-84297165D01*
X159255725Y-84297830D01*
X159109650Y-84298392D01*
X158945038Y-84298860D01*
X158760773Y-84299242D01*
X158555740Y-84299548D01*
X158328824Y-84299785D01*
X158078909Y-84299963D01*
X157804881Y-84300091D01*
X157505623Y-84300176D01*
X157180021Y-84300228D01*
X157076839Y-84300238D01*
X156758303Y-84300245D01*
X156465787Y-84300205D01*
X156198188Y-84300110D01*
X155954404Y-84299953D01*
X155733332Y-84299725D01*
X155533872Y-84299419D01*
X155354921Y-84299025D01*
X155195376Y-84298538D01*
X155054136Y-84297947D01*
X154930099Y-84297247D01*
X154822163Y-84296427D01*
X154729226Y-84295481D01*
X154650185Y-84294400D01*
X154583939Y-84293177D01*
X154529385Y-84291803D01*
X154485422Y-84290271D01*
X154450947Y-84288572D01*
X154424859Y-84286698D01*
X154406056Y-84284642D01*
X154393435Y-84282396D01*
X154385894Y-84279950D01*
X154383495Y-84278862D01*
X154373673Y-84275287D01*
X154364666Y-84272676D01*
X154356437Y-84269893D01*
X154348950Y-84265800D01*
X154342168Y-84259260D01*
X154336055Y-84249137D01*
X154330575Y-84234293D01*
X154325690Y-84213591D01*
X154321364Y-84185895D01*
X154317561Y-84150068D01*
X154314244Y-84104973D01*
X154311376Y-84049472D01*
X154308922Y-83982429D01*
X154306844Y-83902707D01*
X154305107Y-83809170D01*
X154303673Y-83700679D01*
X154303202Y-83650440D01*
X154665255Y-83650440D01*
X154665652Y-83655251D01*
X154672935Y-83659150D01*
X154689389Y-83662232D01*
X154717301Y-83664594D01*
X154758957Y-83666330D01*
X154816642Y-83667536D01*
X154892642Y-83668308D01*
X154989244Y-83668741D01*
X155108734Y-83668931D01*
X155253396Y-83668973D01*
X155859373Y-83668973D01*
X155808146Y-83576298D01*
X155756919Y-83483622D01*
X155756919Y-80792595D01*
X155808146Y-80699919D01*
X155859373Y-80607244D01*
X154776211Y-80607244D01*
X154768379Y-83456162D01*
X154729981Y-83538168D01*
X154709736Y-83578815D01*
X154686813Y-83619532D01*
X154669501Y-83644574D01*
X154669458Y-83644622D01*
X154665255Y-83650440D01*
X154303202Y-83650440D01*
X154302506Y-83576098D01*
X154301570Y-83434290D01*
X154300828Y-83274119D01*
X154300243Y-83094447D01*
X154299779Y-82894137D01*
X154299400Y-82672052D01*
X154299069Y-82427056D01*
X154298749Y-82158012D01*
X154298404Y-81863782D01*
X154297998Y-81543230D01*
X154297945Y-81504424D01*
X154297492Y-81185903D01*
X154297059Y-80893572D01*
X154296677Y-80626293D01*
X154296380Y-80382929D01*
X154296198Y-80162342D01*
X154296165Y-79963395D01*
X154296311Y-79784950D01*
X154296670Y-79625871D01*
X154297274Y-79485019D01*
X154298154Y-79361257D01*
X154299342Y-79253447D01*
X154300871Y-79160453D01*
X154302772Y-79081137D01*
X154305078Y-79014360D01*
X154307821Y-78958987D01*
X154311032Y-78913879D01*
X154314745Y-78877899D01*
X154318990Y-78849909D01*
X154323801Y-78828772D01*
X154329208Y-78813351D01*
X154335245Y-78802508D01*
X154341943Y-78795106D01*
X154349335Y-78790007D01*
X154357451Y-78786073D01*
X154366325Y-78782168D01*
X154375989Y-78777154D01*
X154378817Y-78775556D01*
X154421604Y-78760089D01*
X154468443Y-78753732D01*
X154521244Y-78753734D01*
X154522124Y-78873867D01*
X154522347Y-78887692D01*
X154539129Y-79028215D01*
X154581873Y-79160435D01*
X154649983Y-79282952D01*
X154742868Y-79394363D01*
X154792712Y-79439803D01*
X154903695Y-79515120D01*
X155024788Y-79567643D01*
X155152465Y-79597342D01*
X155283197Y-79604190D01*
X155413460Y-79588159D01*
X155539725Y-79549221D01*
X155643522Y-79495135D01*
X156102907Y-79495135D01*
X156163319Y-79538599D01*
X156214410Y-79579448D01*
X156286403Y-79646076D01*
X156368060Y-79729580D01*
X156456290Y-79826778D01*
X156548000Y-79934487D01*
X156571617Y-79963290D01*
X156611827Y-80012692D01*
X156664387Y-80077505D01*
X156727556Y-80155566D01*
X156799592Y-80244711D01*
X156878754Y-80342778D01*
X156963302Y-80447604D01*
X157051493Y-80557024D01*
X157091944Y-80607244D01*
X157141586Y-80668876D01*
X157231840Y-80780997D01*
X157320515Y-80891224D01*
X157405868Y-80997392D01*
X157486158Y-81097340D01*
X157559644Y-81188903D01*
X157624585Y-81269919D01*
X157679240Y-81338224D01*
X157721866Y-81391655D01*
X157750724Y-81428048D01*
X157764071Y-81445242D01*
X157765173Y-81451703D01*
X157761508Y-81463992D01*
X157752013Y-81483325D01*
X157735738Y-81511074D01*
X157711736Y-81548610D01*
X157679060Y-81597304D01*
X157636761Y-81658529D01*
X157583891Y-81733654D01*
X157519503Y-81824052D01*
X157442648Y-81931094D01*
X157352380Y-82056152D01*
X157247749Y-82200596D01*
X157127809Y-82365798D01*
X157032242Y-82497297D01*
X156915648Y-82657605D01*
X156813088Y-82798387D01*
X156723369Y-82921204D01*
X156645300Y-83027619D01*
X156577688Y-83119195D01*
X156519338Y-83197494D01*
X156469060Y-83264079D01*
X156425661Y-83320511D01*
X156387946Y-83368354D01*
X156354725Y-83409169D01*
X156324803Y-83444520D01*
X156296989Y-83475968D01*
X156270090Y-83505076D01*
X156242913Y-83533406D01*
X156214265Y-83562522D01*
X156108692Y-83668973D01*
X157528054Y-83669031D01*
X157523595Y-83583019D01*
X157523379Y-83578697D01*
X157522532Y-83544313D01*
X157524137Y-83511368D01*
X157529266Y-83478058D01*
X157538993Y-83442578D01*
X157554391Y-83403125D01*
X157576534Y-83357893D01*
X157606495Y-83305077D01*
X157645348Y-83242874D01*
X157694166Y-83169477D01*
X157754022Y-83083084D01*
X157825990Y-82981890D01*
X157911143Y-82864088D01*
X158010554Y-82727876D01*
X158125298Y-82571449D01*
X158530325Y-82020041D01*
X158533893Y-82659382D01*
X158534209Y-82719020D01*
X158534767Y-82879657D01*
X158534513Y-83016289D01*
X158533150Y-83131502D01*
X158530377Y-83227883D01*
X158525898Y-83308016D01*
X158519413Y-83374487D01*
X158510623Y-83429883D01*
X158499230Y-83476788D01*
X158484935Y-83517788D01*
X158467440Y-83555469D01*
X158446447Y-83592417D01*
X158421655Y-83631217D01*
X158396734Y-83668973D01*
X159691884Y-83668973D01*
X159658429Y-83624352D01*
X159653190Y-83617293D01*
X159611302Y-83552594D01*
X159582427Y-83487190D01*
X159563466Y-83412248D01*
X159551321Y-83318933D01*
X159550987Y-83314865D01*
X159549225Y-83276375D01*
X159547633Y-83212156D01*
X159546220Y-83123676D01*
X159544992Y-83012403D01*
X159543956Y-82879803D01*
X159543118Y-82727345D01*
X159542486Y-82556496D01*
X159542067Y-82368722D01*
X159541868Y-82165493D01*
X159541895Y-81948274D01*
X159542155Y-81718535D01*
X159542655Y-81477741D01*
X159543185Y-81261748D01*
X159543752Y-81026635D01*
X159544311Y-80816279D01*
X159544930Y-80629206D01*
X159545681Y-80463942D01*
X159546634Y-80319013D01*
X159547858Y-80192947D01*
X159549423Y-80084268D01*
X159551401Y-79991504D01*
X159553860Y-79913180D01*
X159556871Y-79847822D01*
X159560504Y-79793958D01*
X159564829Y-79750113D01*
X159569916Y-79714813D01*
X159575835Y-79686585D01*
X159582657Y-79663955D01*
X159590451Y-79645449D01*
X159599288Y-79629594D01*
X159609237Y-79614915D01*
X159620369Y-79599940D01*
X159632754Y-79583193D01*
X159644732Y-79566412D01*
X159667885Y-79533231D01*
X159681753Y-79512298D01*
X159682088Y-79511421D01*
X159677246Y-79507462D01*
X159660157Y-79504159D01*
X159628921Y-79501461D01*
X159581635Y-79499317D01*
X159516398Y-79497676D01*
X159431310Y-79496489D01*
X159324467Y-79495703D01*
X159193969Y-79495269D01*
X159037914Y-79495135D01*
X158383722Y-79495135D01*
X158418200Y-79536110D01*
X158438182Y-79564253D01*
X158471443Y-79630608D01*
X158500591Y-79713135D01*
X158522838Y-79804679D01*
X158524256Y-79813369D01*
X158528474Y-79859183D01*
X158531669Y-79929989D01*
X158533849Y-80026275D01*
X158535021Y-80148532D01*
X158535195Y-80297251D01*
X158534378Y-80472922D01*
X158530325Y-81059412D01*
X158111568Y-80529859D01*
X158099574Y-80514690D01*
X157993381Y-80380255D01*
X157902721Y-80265124D01*
X157826151Y-80167339D01*
X157762227Y-80084943D01*
X157709507Y-80015978D01*
X157666549Y-79958486D01*
X157631909Y-79910510D01*
X157604145Y-79870093D01*
X157581814Y-79835276D01*
X157563472Y-79804103D01*
X157547678Y-79774615D01*
X157532988Y-79744855D01*
X157510390Y-79692177D01*
X157495791Y-79636606D01*
X157491908Y-79576666D01*
X157492298Y-79495135D01*
X156102907Y-79495135D01*
X155643522Y-79495135D01*
X155658466Y-79487348D01*
X155766157Y-79402511D01*
X155796094Y-79372602D01*
X155884577Y-79261862D01*
X155947364Y-79141684D01*
X155984789Y-79011291D01*
X155997189Y-78869910D01*
X155997189Y-78753730D01*
X157968088Y-78753730D01*
X158091220Y-78753725D01*
X158355743Y-78753689D01*
X158594702Y-78753663D01*
X158809418Y-78753699D01*
X159001213Y-78753849D01*
X159171407Y-78754166D01*
X159321323Y-78754702D01*
X159452282Y-78755508D01*
X159565605Y-78756638D01*
X159662614Y-78758144D01*
X159744629Y-78760077D01*
X159812974Y-78762491D01*
X159868968Y-78765436D01*
X159913933Y-78768966D01*
X159949191Y-78773133D01*
X159976063Y-78777989D01*
X159995871Y-78783586D01*
X160009935Y-78789976D01*
X160019578Y-78797212D01*
X160026121Y-78805346D01*
X160030885Y-78814431D01*
X160035192Y-78824518D01*
X160040363Y-78835659D01*
X160040455Y-78835841D01*
X160042966Y-78843134D01*
X160045268Y-78855347D01*
X160047372Y-78873605D01*
X160049286Y-78899037D01*
X160051018Y-78932769D01*
X160052578Y-78975928D01*
X160053973Y-79029641D01*
X160055213Y-79095035D01*
X160056307Y-79173238D01*
X160057263Y-79265376D01*
X160058090Y-79372576D01*
X160058797Y-79495966D01*
X160059393Y-79636671D01*
X160059885Y-79795820D01*
X160060284Y-79974540D01*
X160060597Y-80173957D01*
X160060833Y-80395198D01*
X160061002Y-80639390D01*
X160061112Y-80907661D01*
X160061172Y-81201137D01*
X160061189Y-81520946D01*
X160061190Y-81583773D01*
X160061220Y-81900249D01*
X160061267Y-82190615D01*
X160061295Y-82456007D01*
X160061267Y-82697560D01*
X160061150Y-82916410D01*
X160060905Y-83113691D01*
X160060498Y-83290539D01*
X160059893Y-83448090D01*
X160059054Y-83587479D01*
X160058315Y-83668973D01*
X160057945Y-83709840D01*
G36*
X160057945Y-83709840D02*
G01*
X160056532Y-83816310D01*
X160054777Y-83908024D01*
X160052646Y-83986117D01*
X160050102Y-84051724D01*
X160047111Y-84105981D01*
X160043635Y-84150023D01*
X160039640Y-84184985D01*
X160035089Y-84212003D01*
X160029947Y-84232212D01*
X160024179Y-84246747D01*
X160017748Y-84256744D01*
X160010619Y-84263338D01*
X160002755Y-84267665D01*
X159994122Y-84270859D01*
X159984684Y-84274056D01*
X159974404Y-84278391D01*
X159968620Y-84280563D01*
X159958010Y-84282936D01*
X159942245Y-84285110D01*
X159920210Y-84287093D01*
X159890790Y-84288896D01*
X159852869Y-84290525D01*
X159805332Y-84291991D01*
X159747064Y-84293301D01*
X159676950Y-84294465D01*
X159593874Y-84295491D01*
X159496721Y-84296388D01*
X159384376Y-84297165D01*
X159255725Y-84297830D01*
X159109650Y-84298392D01*
X158945038Y-84298860D01*
X158760773Y-84299242D01*
X158555740Y-84299548D01*
X158328824Y-84299785D01*
X158078909Y-84299963D01*
X157804881Y-84300091D01*
X157505623Y-84300176D01*
X157180021Y-84300228D01*
X157076839Y-84300238D01*
X156758303Y-84300245D01*
X156465787Y-84300205D01*
X156198188Y-84300110D01*
X155954404Y-84299953D01*
X155733332Y-84299725D01*
X155533872Y-84299419D01*
X155354921Y-84299025D01*
X155195376Y-84298538D01*
X155054136Y-84297947D01*
X154930099Y-84297247D01*
X154822163Y-84296427D01*
X154729226Y-84295481D01*
X154650185Y-84294400D01*
X154583939Y-84293177D01*
X154529385Y-84291803D01*
X154485422Y-84290271D01*
X154450947Y-84288572D01*
X154424859Y-84286698D01*
X154406056Y-84284642D01*
X154393435Y-84282396D01*
X154385894Y-84279950D01*
X154383495Y-84278862D01*
X154373673Y-84275287D01*
X154364666Y-84272676D01*
X154356437Y-84269893D01*
X154348950Y-84265800D01*
X154342168Y-84259260D01*
X154336055Y-84249137D01*
X154330575Y-84234293D01*
X154325690Y-84213591D01*
X154321364Y-84185895D01*
X154317561Y-84150068D01*
X154314244Y-84104973D01*
X154311376Y-84049472D01*
X154308922Y-83982429D01*
X154306844Y-83902707D01*
X154305107Y-83809170D01*
X154303673Y-83700679D01*
X154303202Y-83650440D01*
X154665255Y-83650440D01*
X154665652Y-83655251D01*
X154672935Y-83659150D01*
X154689389Y-83662232D01*
X154717301Y-83664594D01*
X154758957Y-83666330D01*
X154816642Y-83667536D01*
X154892642Y-83668308D01*
X154989244Y-83668741D01*
X155108734Y-83668931D01*
X155253396Y-83668973D01*
X155859373Y-83668973D01*
X155808146Y-83576298D01*
X155756919Y-83483622D01*
X155756919Y-80792595D01*
X155808146Y-80699919D01*
X155859373Y-80607244D01*
X154776211Y-80607244D01*
X154768379Y-83456162D01*
X154729981Y-83538168D01*
X154709736Y-83578815D01*
X154686813Y-83619532D01*
X154669501Y-83644574D01*
X154669458Y-83644622D01*
X154665255Y-83650440D01*
X154303202Y-83650440D01*
X154302506Y-83576098D01*
X154301570Y-83434290D01*
X154300828Y-83274119D01*
X154300243Y-83094447D01*
X154299779Y-82894137D01*
X154299400Y-82672052D01*
X154299069Y-82427056D01*
X154298749Y-82158012D01*
X154298404Y-81863782D01*
X154297998Y-81543230D01*
X154297945Y-81504424D01*
X154297492Y-81185903D01*
X154297059Y-80893572D01*
X154296677Y-80626293D01*
X154296380Y-80382929D01*
X154296198Y-80162342D01*
X154296165Y-79963395D01*
X154296311Y-79784950D01*
X154296670Y-79625871D01*
X154297274Y-79485019D01*
X154298154Y-79361257D01*
X154299342Y-79253447D01*
X154300871Y-79160453D01*
X154302772Y-79081137D01*
X154305078Y-79014360D01*
X154307821Y-78958987D01*
X154311032Y-78913879D01*
X154314745Y-78877899D01*
X154318990Y-78849909D01*
X154323801Y-78828772D01*
X154329208Y-78813351D01*
X154335245Y-78802508D01*
X154341943Y-78795106D01*
X154349335Y-78790007D01*
X154357451Y-78786073D01*
X154366325Y-78782168D01*
X154375989Y-78777154D01*
X154378817Y-78775556D01*
X154421604Y-78760089D01*
X154468443Y-78753732D01*
X154521244Y-78753734D01*
X154522124Y-78873867D01*
X154522347Y-78887692D01*
X154539129Y-79028215D01*
X154581873Y-79160435D01*
X154649983Y-79282952D01*
X154742868Y-79394363D01*
X154792712Y-79439803D01*
X154903695Y-79515120D01*
X155024788Y-79567643D01*
X155152465Y-79597342D01*
X155283197Y-79604190D01*
X155413460Y-79588159D01*
X155539725Y-79549221D01*
X155643522Y-79495135D01*
X156102907Y-79495135D01*
X156163319Y-79538599D01*
X156214410Y-79579448D01*
X156286403Y-79646076D01*
X156368060Y-79729580D01*
X156456290Y-79826778D01*
X156548000Y-79934487D01*
X156571617Y-79963290D01*
X156611827Y-80012692D01*
X156664387Y-80077505D01*
X156727556Y-80155566D01*
X156799592Y-80244711D01*
X156878754Y-80342778D01*
X156963302Y-80447604D01*
X157051493Y-80557024D01*
X157091944Y-80607244D01*
X157141586Y-80668876D01*
X157231840Y-80780997D01*
X157320515Y-80891224D01*
X157405868Y-80997392D01*
X157486158Y-81097340D01*
X157559644Y-81188903D01*
X157624585Y-81269919D01*
X157679240Y-81338224D01*
X157721866Y-81391655D01*
X157750724Y-81428048D01*
X157764071Y-81445242D01*
X157765173Y-81451703D01*
X157761508Y-81463992D01*
X157752013Y-81483325D01*
X157735738Y-81511074D01*
X157711736Y-81548610D01*
X157679060Y-81597304D01*
X157636761Y-81658529D01*
X157583891Y-81733654D01*
X157519503Y-81824052D01*
X157442648Y-81931094D01*
X157352380Y-82056152D01*
X157247749Y-82200596D01*
X157127809Y-82365798D01*
X157032242Y-82497297D01*
X156915648Y-82657605D01*
X156813088Y-82798387D01*
X156723369Y-82921204D01*
X156645300Y-83027619D01*
X156577688Y-83119195D01*
X156519338Y-83197494D01*
X156469060Y-83264079D01*
X156425661Y-83320511D01*
X156387946Y-83368354D01*
X156354725Y-83409169D01*
X156324803Y-83444520D01*
X156296989Y-83475968D01*
X156270090Y-83505076D01*
X156242913Y-83533406D01*
X156214265Y-83562522D01*
X156108692Y-83668973D01*
X157528054Y-83669031D01*
X157523595Y-83583019D01*
X157523379Y-83578697D01*
X157522532Y-83544313D01*
X157524137Y-83511368D01*
X157529266Y-83478058D01*
X157538993Y-83442578D01*
X157554391Y-83403125D01*
X157576534Y-83357893D01*
X157606495Y-83305077D01*
X157645348Y-83242874D01*
X157694166Y-83169477D01*
X157754022Y-83083084D01*
X157825990Y-82981890D01*
X157911143Y-82864088D01*
X158010554Y-82727876D01*
X158125298Y-82571449D01*
X158530325Y-82020041D01*
X158533893Y-82659382D01*
X158534209Y-82719020D01*
X158534767Y-82879657D01*
X158534513Y-83016289D01*
X158533150Y-83131502D01*
X158530377Y-83227883D01*
X158525898Y-83308016D01*
X158519413Y-83374487D01*
X158510623Y-83429883D01*
X158499230Y-83476788D01*
X158484935Y-83517788D01*
X158467440Y-83555469D01*
X158446447Y-83592417D01*
X158421655Y-83631217D01*
X158396734Y-83668973D01*
X159691884Y-83668973D01*
X159658429Y-83624352D01*
X159653190Y-83617293D01*
X159611302Y-83552594D01*
X159582427Y-83487190D01*
X159563466Y-83412248D01*
X159551321Y-83318933D01*
X159550987Y-83314865D01*
X159549225Y-83276375D01*
X159547633Y-83212156D01*
X159546220Y-83123676D01*
X159544992Y-83012403D01*
X159543956Y-82879803D01*
X159543118Y-82727345D01*
X159542486Y-82556496D01*
X159542067Y-82368722D01*
X159541868Y-82165493D01*
X159541895Y-81948274D01*
X159542155Y-81718535D01*
X159542655Y-81477741D01*
X159543185Y-81261748D01*
X159543752Y-81026635D01*
X159544311Y-80816279D01*
X159544930Y-80629206D01*
X159545681Y-80463942D01*
X159546634Y-80319013D01*
X159547858Y-80192947D01*
X159549423Y-80084268D01*
X159551401Y-79991504D01*
X159553860Y-79913180D01*
X159556871Y-79847822D01*
X159560504Y-79793958D01*
X159564829Y-79750113D01*
X159569916Y-79714813D01*
X159575835Y-79686585D01*
X159582657Y-79663955D01*
X159590451Y-79645449D01*
X159599288Y-79629594D01*
X159609237Y-79614915D01*
X159620369Y-79599940D01*
X159632754Y-79583193D01*
X159644732Y-79566412D01*
X159667885Y-79533231D01*
X159681753Y-79512298D01*
X159682088Y-79511421D01*
X159677246Y-79507462D01*
X159660157Y-79504159D01*
X159628921Y-79501461D01*
X159581635Y-79499317D01*
X159516398Y-79497676D01*
X159431310Y-79496489D01*
X159324467Y-79495703D01*
X159193969Y-79495269D01*
X159037914Y-79495135D01*
X158383722Y-79495135D01*
X158418200Y-79536110D01*
X158438182Y-79564253D01*
X158471443Y-79630608D01*
X158500591Y-79713135D01*
X158522838Y-79804679D01*
X158524256Y-79813369D01*
X158528474Y-79859183D01*
X158531669Y-79929989D01*
X158533849Y-80026275D01*
X158535021Y-80148532D01*
X158535195Y-80297251D01*
X158534378Y-80472922D01*
X158530325Y-81059412D01*
X158111568Y-80529859D01*
X158099574Y-80514690D01*
X157993381Y-80380255D01*
X157902721Y-80265124D01*
X157826151Y-80167339D01*
X157762227Y-80084943D01*
X157709507Y-80015978D01*
X157666549Y-79958486D01*
X157631909Y-79910510D01*
X157604145Y-79870093D01*
X157581814Y-79835276D01*
X157563472Y-79804103D01*
X157547678Y-79774615D01*
X157532988Y-79744855D01*
X157510390Y-79692177D01*
X157495791Y-79636606D01*
X157491908Y-79576666D01*
X157492298Y-79495135D01*
X156102907Y-79495135D01*
X155643522Y-79495135D01*
X155658466Y-79487348D01*
X155766157Y-79402511D01*
X155796094Y-79372602D01*
X155884577Y-79261862D01*
X155947364Y-79141684D01*
X155984789Y-79011291D01*
X155997189Y-78869910D01*
X155997189Y-78753730D01*
X157968088Y-78753730D01*
X158091220Y-78753725D01*
X158355743Y-78753689D01*
X158594702Y-78753663D01*
X158809418Y-78753699D01*
X159001213Y-78753849D01*
X159171407Y-78754166D01*
X159321323Y-78754702D01*
X159452282Y-78755508D01*
X159565605Y-78756638D01*
X159662614Y-78758144D01*
X159744629Y-78760077D01*
X159812974Y-78762491D01*
X159868968Y-78765436D01*
X159913933Y-78768966D01*
X159949191Y-78773133D01*
X159976063Y-78777989D01*
X159995871Y-78783586D01*
X160009935Y-78789976D01*
X160019578Y-78797212D01*
X160026121Y-78805346D01*
X160030885Y-78814431D01*
X160035192Y-78824518D01*
X160040363Y-78835659D01*
X160040455Y-78835841D01*
X160042966Y-78843134D01*
X160045268Y-78855347D01*
X160047372Y-78873605D01*
X160049286Y-78899037D01*
X160051018Y-78932769D01*
X160052578Y-78975928D01*
X160053973Y-79029641D01*
X160055213Y-79095035D01*
X160056307Y-79173238D01*
X160057263Y-79265376D01*
X160058090Y-79372576D01*
X160058797Y-79495966D01*
X160059393Y-79636671D01*
X160059885Y-79795820D01*
X160060284Y-79974540D01*
X160060597Y-80173957D01*
X160060833Y-80395198D01*
X160061002Y-80639390D01*
X160061112Y-80907661D01*
X160061172Y-81201137D01*
X160061189Y-81520946D01*
X160061190Y-81583773D01*
X160061220Y-81900249D01*
X160061267Y-82190615D01*
X160061295Y-82456007D01*
X160061267Y-82697560D01*
X160061150Y-82916410D01*
X160060905Y-83113691D01*
X160060498Y-83290539D01*
X160059893Y-83448090D01*
X160059054Y-83587479D01*
X160058315Y-83668973D01*
X160057945Y-83709840D01*
G37*
X150847128Y-82731034D02*
X150840962Y-82841736D01*
X150827635Y-82944739D01*
X150807526Y-83030541D01*
X150775440Y-83118818D01*
X150701063Y-83264299D01*
X150605994Y-83392295D01*
X150491218Y-83501933D01*
X150357719Y-83592342D01*
X150206480Y-83662648D01*
X150038487Y-83711981D01*
X149969983Y-83723108D01*
X149872093Y-83730841D01*
X149765484Y-83732580D01*
X149659065Y-83728465D01*
X149561745Y-83718637D01*
X149482433Y-83703236D01*
X149442579Y-83691110D01*
X149352063Y-83655626D01*
X149260052Y-83610575D01*
X149176038Y-83560843D01*
X149109515Y-83511316D01*
X149108697Y-83510601D01*
X149072243Y-83479692D01*
X149044196Y-83457683D01*
X149030569Y-83449298D01*
X149029079Y-83451300D01*
X149025708Y-83472926D01*
X149023365Y-83513260D01*
X149022487Y-83566000D01*
X149022487Y-83682703D01*
X148507622Y-83682703D01*
X148493916Y-83682701D01*
X148378965Y-83682500D01*
X148273464Y-83681999D01*
X148180414Y-83681237D01*
X148102817Y-83680249D01*
X148043674Y-83679074D01*
X148005986Y-83677749D01*
X147992757Y-83676311D01*
X147993065Y-83675054D01*
X148001720Y-83656501D01*
X148019863Y-83621645D01*
X148044244Y-83576770D01*
X148095730Y-83483622D01*
X148103279Y-82563981D01*
X149077406Y-82563981D01*
X149077789Y-82636640D01*
X149079644Y-82712985D01*
X149083279Y-82768168D01*
X149088958Y-82805782D01*
X149096946Y-82829421D01*
X149107222Y-82846301D01*
X149145918Y-82892317D01*
X149197765Y-82940221D01*
X149254592Y-82982904D01*
X149308225Y-83013253D01*
X149337982Y-83024389D01*
X149406499Y-83039216D01*
X149495988Y-83046796D01*
X149590338Y-83045648D01*
X149679934Y-83030056D01*
X149754718Y-82997846D01*
X149819421Y-82947567D01*
X149837622Y-82928970D01*
X149885011Y-82865546D01*
X149910652Y-82797184D01*
X149918352Y-82714925D01*
X149916266Y-82671467D01*
X149895635Y-82582005D01*
X149852295Y-82505219D01*
X149785457Y-82440243D01*
X149694331Y-82386215D01*
X149578128Y-82342270D01*
X149531281Y-82330738D01*
X149474568Y-82322842D01*
X149403195Y-82318457D01*
X149310811Y-82316982D01*
X149295804Y-82316983D01*
X149226689Y-82317827D01*
X149167320Y-82319866D01*
X149123600Y-82322833D01*
X149101433Y-82326461D01*
X149098882Y-82327639D01*
X149090635Y-82335035D01*
X149084794Y-82349899D01*
X149080955Y-82376227D01*
X149078713Y-82418018D01*
X149077665Y-82479270D01*
X149077406Y-82563981D01*
X148103279Y-82563981D01*
X148103676Y-82515676D01*
X148104857Y-82374695D01*
X148106509Y-82194893D01*
X148108243Y-82038799D01*
X148110200Y-81904205D01*
X148112519Y-81788905D01*
X148115340Y-81690689D01*
X148118804Y-81607352D01*
X148123050Y-81536685D01*
X148128220Y-81476480D01*
X148134452Y-81424531D01*
X148141887Y-81378630D01*
X148150666Y-81336569D01*
X148160927Y-81296141D01*
X148172813Y-81255137D01*
X148186461Y-81211352D01*
X148240230Y-81074085D01*
X148313865Y-80947222D01*
X148405566Y-80838608D01*
X148516175Y-80747674D01*
X148646530Y-80673853D01*
X148797471Y-80616575D01*
X148969837Y-80575273D01*
X149164469Y-80549378D01*
X149232495Y-80544229D01*
X149347062Y-80540464D01*
X149460616Y-80543854D01*
X149578473Y-80554972D01*
X149705950Y-80574388D01*
X149848363Y-80602674D01*
X150011027Y-80640403D01*
X150048627Y-80649532D01*
X150143049Y-80671996D01*
X150232543Y-80692679D01*
X150311681Y-80710361D01*
X150375036Y-80723820D01*
X150417180Y-80731833D01*
X150514414Y-80747803D01*
X150377716Y-81079118D01*
X150343523Y-81161840D01*
X150309885Y-81242896D01*
X150281023Y-81312101D01*
X150258355Y-81366068D01*
X150243297Y-81401412D01*
X150237267Y-81414746D01*
X150236319Y-81414937D01*
X150218844Y-81408984D01*
X150184483Y-81393728D01*
X150139434Y-81371883D01*
X150045802Y-81329343D01*
X149916958Y-81282830D01*
X149785086Y-81247210D01*
X149655344Y-81223378D01*
X149532889Y-81212227D01*
X149422877Y-81214654D01*
X149330465Y-81231552D01*
X149265969Y-81258364D01*
X149192720Y-81313310D01*
X149136333Y-81387852D01*
X149098421Y-81479695D01*
X149080599Y-81586547D01*
X149074323Y-81685027D01*
X149401945Y-81685924D01*
X149512432Y-81686851D01*
X149634638Y-81690141D01*
X149739035Y-81696351D01*
X149831024Y-81706084D01*
X149916004Y-81719943D01*
X149999377Y-81738533D01*
X150086541Y-81762458D01*
X150216960Y-81807996D01*
X150370360Y-81882988D01*
X150504988Y-81974847D01*
X150619516Y-82082280D01*
X150712616Y-82203995D01*
X150782961Y-82338701D01*
X150829223Y-82485105D01*
X150836468Y-82524536D01*
X150845756Y-82622133D01*
X150846926Y-82714925D01*
X150847128Y-82731034D01*
G36*
X150847128Y-82731034D02*
G01*
X150840962Y-82841736D01*
X150827635Y-82944739D01*
X150807526Y-83030541D01*
X150775440Y-83118818D01*
X150701063Y-83264299D01*
X150605994Y-83392295D01*
X150491218Y-83501933D01*
X150357719Y-83592342D01*
X150206480Y-83662648D01*
X150038487Y-83711981D01*
X149969983Y-83723108D01*
X149872093Y-83730841D01*
X149765484Y-83732580D01*
X149659065Y-83728465D01*
X149561745Y-83718637D01*
X149482433Y-83703236D01*
X149442579Y-83691110D01*
X149352063Y-83655626D01*
X149260052Y-83610575D01*
X149176038Y-83560843D01*
X149109515Y-83511316D01*
X149108697Y-83510601D01*
X149072243Y-83479692D01*
X149044196Y-83457683D01*
X149030569Y-83449298D01*
X149029079Y-83451300D01*
X149025708Y-83472926D01*
X149023365Y-83513260D01*
X149022487Y-83566000D01*
X149022487Y-83682703D01*
X148507622Y-83682703D01*
X148493916Y-83682701D01*
X148378965Y-83682500D01*
X148273464Y-83681999D01*
X148180414Y-83681237D01*
X148102817Y-83680249D01*
X148043674Y-83679074D01*
X148005986Y-83677749D01*
X147992757Y-83676311D01*
X147993065Y-83675054D01*
X148001720Y-83656501D01*
X148019863Y-83621645D01*
X148044244Y-83576770D01*
X148095730Y-83483622D01*
X148103279Y-82563981D01*
X149077406Y-82563981D01*
X149077789Y-82636640D01*
X149079644Y-82712985D01*
X149083279Y-82768168D01*
X149088958Y-82805782D01*
X149096946Y-82829421D01*
X149107222Y-82846301D01*
X149145918Y-82892317D01*
X149197765Y-82940221D01*
X149254592Y-82982904D01*
X149308225Y-83013253D01*
X149337982Y-83024389D01*
X149406499Y-83039216D01*
X149495988Y-83046796D01*
X149590338Y-83045648D01*
X149679934Y-83030056D01*
X149754718Y-82997846D01*
X149819421Y-82947567D01*
X149837622Y-82928970D01*
X149885011Y-82865546D01*
X149910652Y-82797184D01*
X149918352Y-82714925D01*
X149916266Y-82671467D01*
X149895635Y-82582005D01*
X149852295Y-82505219D01*
X149785457Y-82440243D01*
X149694331Y-82386215D01*
X149578128Y-82342270D01*
X149531281Y-82330738D01*
X149474568Y-82322842D01*
X149403195Y-82318457D01*
X149310811Y-82316982D01*
X149295804Y-82316983D01*
X149226689Y-82317827D01*
X149167320Y-82319866D01*
X149123600Y-82322833D01*
X149101433Y-82326461D01*
X149098882Y-82327639D01*
X149090635Y-82335035D01*
X149084794Y-82349899D01*
X149080955Y-82376227D01*
X149078713Y-82418018D01*
X149077665Y-82479270D01*
X149077406Y-82563981D01*
X148103279Y-82563981D01*
X148103676Y-82515676D01*
X148104857Y-82374695D01*
X148106509Y-82194893D01*
X148108243Y-82038799D01*
X148110200Y-81904205D01*
X148112519Y-81788905D01*
X148115340Y-81690689D01*
X148118804Y-81607352D01*
X148123050Y-81536685D01*
X148128220Y-81476480D01*
X148134452Y-81424531D01*
X148141887Y-81378630D01*
X148150666Y-81336569D01*
X148160927Y-81296141D01*
X148172813Y-81255137D01*
X148186461Y-81211352D01*
X148240230Y-81074085D01*
X148313865Y-80947222D01*
X148405566Y-80838608D01*
X148516175Y-80747674D01*
X148646530Y-80673853D01*
X148797471Y-80616575D01*
X148969837Y-80575273D01*
X149164469Y-80549378D01*
X149232495Y-80544229D01*
X149347062Y-80540464D01*
X149460616Y-80543854D01*
X149578473Y-80554972D01*
X149705950Y-80574388D01*
X149848363Y-80602674D01*
X150011027Y-80640403D01*
X150048627Y-80649532D01*
X150143049Y-80671996D01*
X150232543Y-80692679D01*
X150311681Y-80710361D01*
X150375036Y-80723820D01*
X150417180Y-80731833D01*
X150514414Y-80747803D01*
X150377716Y-81079118D01*
X150343523Y-81161840D01*
X150309885Y-81242896D01*
X150281023Y-81312101D01*
X150258355Y-81366068D01*
X150243297Y-81401412D01*
X150237267Y-81414746D01*
X150236319Y-81414937D01*
X150218844Y-81408984D01*
X150184483Y-81393728D01*
X150139434Y-81371883D01*
X150045802Y-81329343D01*
X149916958Y-81282830D01*
X149785086Y-81247210D01*
X149655344Y-81223378D01*
X149532889Y-81212227D01*
X149422877Y-81214654D01*
X149330465Y-81231552D01*
X149265969Y-81258364D01*
X149192720Y-81313310D01*
X149136333Y-81387852D01*
X149098421Y-81479695D01*
X149080599Y-81586547D01*
X149074323Y-81685027D01*
X149401945Y-81685924D01*
X149512432Y-81686851D01*
X149634638Y-81690141D01*
X149739035Y-81696351D01*
X149831024Y-81706084D01*
X149916004Y-81719943D01*
X149999377Y-81738533D01*
X150086541Y-81762458D01*
X150216960Y-81807996D01*
X150370360Y-81882988D01*
X150504988Y-81974847D01*
X150619516Y-82082280D01*
X150712616Y-82203995D01*
X150782961Y-82338701D01*
X150829223Y-82485105D01*
X150836468Y-82524536D01*
X150845756Y-82622133D01*
X150846926Y-82714925D01*
X150847128Y-82731034D01*
G37*
X147743755Y-82299001D02*
X147740842Y-82426057D01*
X147732512Y-82538109D01*
X147718120Y-82641252D01*
X147697021Y-82741581D01*
X147668570Y-82845190D01*
X147625428Y-82969033D01*
X147546190Y-83136216D01*
X147448993Y-83285961D01*
X147335325Y-83416852D01*
X147206672Y-83527474D01*
X147064521Y-83616412D01*
X146910359Y-83682250D01*
X146745674Y-83723574D01*
X146743692Y-83723906D01*
X146623337Y-83735486D01*
X146491099Y-83733941D01*
X146356404Y-83720222D01*
X146228684Y-83695283D01*
X146117366Y-83660077D01*
X146069851Y-83638653D01*
X146007969Y-83606090D01*
X145944380Y-83568846D01*
X145885721Y-83531021D01*
X145838626Y-83496714D01*
X145809730Y-83470024D01*
X145803097Y-83462696D01*
X145795189Y-83460135D01*
X145789903Y-83472851D01*
X145786008Y-83504899D01*
X145782271Y-83560331D01*
X145775406Y-83675838D01*
X145249569Y-83679434D01*
X144723732Y-83683031D01*
X144760116Y-83620946D01*
X144762285Y-83617276D01*
X144772865Y-83600044D01*
X144782463Y-83584693D01*
X144791131Y-83569889D01*
X144798920Y-83554299D01*
X144805882Y-83536589D01*
X144812069Y-83515424D01*
X144817531Y-83489473D01*
X144822322Y-83457400D01*
X144826492Y-83417872D01*
X144830094Y-83369557D01*
X144833178Y-83311119D01*
X144835797Y-83241226D01*
X144838002Y-83158544D01*
X144839844Y-83061739D01*
X144841376Y-82949477D01*
X144842612Y-82824205D01*
X145844054Y-82824205D01*
X145912703Y-82869233D01*
X145939103Y-82885453D01*
X145999552Y-82917857D01*
X146056865Y-82943661D01*
X146081965Y-82952398D01*
X146161831Y-82969841D01*
X146262811Y-82978748D01*
X146314159Y-82980601D01*
X146361823Y-82980179D01*
X146397304Y-82975419D01*
X146429129Y-82965014D01*
X146465823Y-82947659D01*
X146536342Y-82901169D01*
X146597435Y-82835406D01*
X146646337Y-82750658D01*
X146683515Y-82645597D01*
X146709432Y-82518895D01*
X146724556Y-82369222D01*
X146729350Y-82195252D01*
X146729117Y-82155700D01*
X146722225Y-81972444D01*
X146705488Y-81812985D01*
X146678501Y-81675643D01*
X146640855Y-81558734D01*
X146592144Y-81460577D01*
X146531961Y-81379488D01*
X146506993Y-81354740D01*
X146429613Y-81303181D01*
X146338776Y-81271807D01*
X146238419Y-81260795D01*
X146132475Y-81270324D01*
X146024879Y-81300572D01*
X145919568Y-81351718D01*
X145844054Y-81396982D01*
X145844054Y-82824205D01*
X144842612Y-82824205D01*
X144842649Y-82820425D01*
X144843715Y-82673250D01*
X144844625Y-82506618D01*
X144845431Y-82319194D01*
X144846185Y-82109646D01*
X144846938Y-81876640D01*
X144847742Y-81618842D01*
X144848649Y-81334919D01*
X144855514Y-79241135D01*
X145401271Y-79237545D01*
X145440959Y-79237304D01*
X145557730Y-79236825D01*
X145664535Y-79236727D01*
X145758458Y-79236992D01*
X145836584Y-79237599D01*
X145895998Y-79238528D01*
X145933784Y-79239759D01*
X145947027Y-79241272D01*
X145945333Y-79246069D01*
X145932694Y-79268810D01*
X145911760Y-79301881D01*
X145909672Y-79305043D01*
X145893442Y-79330577D01*
X145879833Y-79355421D01*
X145868616Y-79382134D01*
X145859559Y-79413274D01*
X145852431Y-79451402D01*
X145847003Y-79499075D01*
X145843043Y-79558853D01*
X145840320Y-79633295D01*
X145838605Y-79724960D01*
X145837665Y-79836408D01*
X145837270Y-79970196D01*
X145837189Y-80128885D01*
X145837333Y-80252781D01*
X145837774Y-80374419D01*
X145838479Y-80484711D01*
X145839417Y-80580973D01*
X145840557Y-80660519D01*
X145841865Y-80720663D01*
X145843310Y-80758718D01*
X145844859Y-80772000D01*
X145849858Y-80769939D01*
X145871831Y-80755422D01*
X145903211Y-80731581D01*
X145948704Y-80699519D01*
X146034178Y-80652279D01*
X146131872Y-80610140D01*
X146232666Y-80577370D01*
X146317352Y-80560660D01*
X146422823Y-80550009D01*
X146536971Y-80546318D01*
X146650989Y-80549594D01*
X146756067Y-80559840D01*
X146843396Y-80577060D01*
X146932317Y-80606068D01*
X147080658Y-80676389D01*
X147218010Y-80769877D01*
X147341841Y-80884377D01*
X147449615Y-81017739D01*
X147538799Y-81167808D01*
X147560940Y-81213826D01*
X147622987Y-81369048D01*
X147671496Y-81537513D01*
X147707080Y-81722192D01*
X147730353Y-81926053D01*
X147741927Y-82152067D01*
X147742465Y-82195252D01*
X147743755Y-82299001D01*
G36*
X147743755Y-82299001D02*
G01*
X147740842Y-82426057D01*
X147732512Y-82538109D01*
X147718120Y-82641252D01*
X147697021Y-82741581D01*
X147668570Y-82845190D01*
X147625428Y-82969033D01*
X147546190Y-83136216D01*
X147448993Y-83285961D01*
X147335325Y-83416852D01*
X147206672Y-83527474D01*
X147064521Y-83616412D01*
X146910359Y-83682250D01*
X146745674Y-83723574D01*
X146743692Y-83723906D01*
X146623337Y-83735486D01*
X146491099Y-83733941D01*
X146356404Y-83720222D01*
X146228684Y-83695283D01*
X146117366Y-83660077D01*
X146069851Y-83638653D01*
X146007969Y-83606090D01*
X145944380Y-83568846D01*
X145885721Y-83531021D01*
X145838626Y-83496714D01*
X145809730Y-83470024D01*
X145803097Y-83462696D01*
X145795189Y-83460135D01*
X145789903Y-83472851D01*
X145786008Y-83504899D01*
X145782271Y-83560331D01*
X145775406Y-83675838D01*
X145249569Y-83679434D01*
X144723732Y-83683031D01*
X144760116Y-83620946D01*
X144762285Y-83617276D01*
X144772865Y-83600044D01*
X144782463Y-83584693D01*
X144791131Y-83569889D01*
X144798920Y-83554299D01*
X144805882Y-83536589D01*
X144812069Y-83515424D01*
X144817531Y-83489473D01*
X144822322Y-83457400D01*
X144826492Y-83417872D01*
X144830094Y-83369557D01*
X144833178Y-83311119D01*
X144835797Y-83241226D01*
X144838002Y-83158544D01*
X144839844Y-83061739D01*
X144841376Y-82949477D01*
X144842612Y-82824205D01*
X145844054Y-82824205D01*
X145912703Y-82869233D01*
X145939103Y-82885453D01*
X145999552Y-82917857D01*
X146056865Y-82943661D01*
X146081965Y-82952398D01*
X146161831Y-82969841D01*
X146262811Y-82978748D01*
X146314159Y-82980601D01*
X146361823Y-82980179D01*
X146397304Y-82975419D01*
X146429129Y-82965014D01*
X146465823Y-82947659D01*
X146536342Y-82901169D01*
X146597435Y-82835406D01*
X146646337Y-82750658D01*
X146683515Y-82645597D01*
X146709432Y-82518895D01*
X146724556Y-82369222D01*
X146729350Y-82195252D01*
X146729117Y-82155700D01*
X146722225Y-81972444D01*
X146705488Y-81812985D01*
X146678501Y-81675643D01*
X146640855Y-81558734D01*
X146592144Y-81460577D01*
X146531961Y-81379488D01*
X146506993Y-81354740D01*
X146429613Y-81303181D01*
X146338776Y-81271807D01*
X146238419Y-81260795D01*
X146132475Y-81270324D01*
X146024879Y-81300572D01*
X145919568Y-81351718D01*
X145844054Y-81396982D01*
X145844054Y-82824205D01*
X144842612Y-82824205D01*
X144842649Y-82820425D01*
X144843715Y-82673250D01*
X144844625Y-82506618D01*
X144845431Y-82319194D01*
X144846185Y-82109646D01*
X144846938Y-81876640D01*
X144847742Y-81618842D01*
X144848649Y-81334919D01*
X144855514Y-79241135D01*
X145401271Y-79237545D01*
X145440959Y-79237304D01*
X145557730Y-79236825D01*
X145664535Y-79236727D01*
X145758458Y-79236992D01*
X145836584Y-79237599D01*
X145895998Y-79238528D01*
X145933784Y-79239759D01*
X145947027Y-79241272D01*
X145945333Y-79246069D01*
X145932694Y-79268810D01*
X145911760Y-79301881D01*
X145909672Y-79305043D01*
X145893442Y-79330577D01*
X145879833Y-79355421D01*
X145868616Y-79382134D01*
X145859559Y-79413274D01*
X145852431Y-79451402D01*
X145847003Y-79499075D01*
X145843043Y-79558853D01*
X145840320Y-79633295D01*
X145838605Y-79724960D01*
X145837665Y-79836408D01*
X145837270Y-79970196D01*
X145837189Y-80128885D01*
X145837333Y-80252781D01*
X145837774Y-80374419D01*
X145838479Y-80484711D01*
X145839417Y-80580973D01*
X145840557Y-80660519D01*
X145841865Y-80720663D01*
X145843310Y-80758718D01*
X145844859Y-80772000D01*
X145849858Y-80769939D01*
X145871831Y-80755422D01*
X145903211Y-80731581D01*
X145948704Y-80699519D01*
X146034178Y-80652279D01*
X146131872Y-80610140D01*
X146232666Y-80577370D01*
X146317352Y-80560660D01*
X146422823Y-80550009D01*
X146536971Y-80546318D01*
X146650989Y-80549594D01*
X146756067Y-80559840D01*
X146843396Y-80577060D01*
X146932317Y-80606068D01*
X147080658Y-80676389D01*
X147218010Y-80769877D01*
X147341841Y-80884377D01*
X147449615Y-81017739D01*
X147538799Y-81167808D01*
X147560940Y-81213826D01*
X147622987Y-81369048D01*
X147671496Y-81537513D01*
X147707080Y-81722192D01*
X147730353Y-81926053D01*
X147741927Y-82152067D01*
X147742465Y-82195252D01*
X147743755Y-82299001D01*
G37*
%TD*%
M02*
