%TF.GenerationSoftware,KiCad,Pcbnew,7.0.9*%
%TF.CreationDate,2025-05-13T13:00:26+05:30*%
%TF.ProjectId,Kicad Tutorial,4b696361-6420-4547-9574-6f7269616c2e,1*%
%TF.SameCoordinates,Original*%
%TF.FileFunction,Copper,L1,Top*%
%TF.FilePolarity,Positive*%
%FSLAX46Y46*%
G04 Gerber Fmt 4.6, Leading zero omitted, Abs format (unit mm)*
G04 Created by KiCad (PCBNEW 7.0.9) date 2025-05-13 13:00:26*
%MOMM*%
%LPD*%
G01*
G04 APERTURE LIST*
%TA.AperFunction,ComponentPad*%
%ADD10C,1.600000*%
%TD*%
%TA.AperFunction,ComponentPad*%
%ADD11O,1.600000X1.600000*%
%TD*%
%TA.AperFunction,ComponentPad*%
%ADD12R,1.700000X1.700000*%
%TD*%
%TA.AperFunction,ComponentPad*%
%ADD13R,2.100000X2.100000*%
%TD*%
%TA.AperFunction,ComponentPad*%
%ADD14C,2.100000*%
%TD*%
%TA.AperFunction,ComponentPad*%
%ADD15O,2.200000X3.500000*%
%TD*%
%TA.AperFunction,ComponentPad*%
%ADD16R,1.500000X2.500000*%
%TD*%
%TA.AperFunction,ComponentPad*%
%ADD17O,1.500000X2.500000*%
%TD*%
%TA.AperFunction,ComponentPad*%
%ADD18R,1.800000X1.800000*%
%TD*%
%TA.AperFunction,ComponentPad*%
%ADD19C,1.800000*%
%TD*%
%TA.AperFunction,ComponentPad*%
%ADD20C,1.500000*%
%TD*%
%TA.AperFunction,ComponentPad*%
%ADD21R,1.600000X1.600000*%
%TD*%
%TA.AperFunction,Conductor*%
%ADD22C,0.500000*%
%TD*%
%TA.AperFunction,Conductor*%
%ADD23C,0.300000*%
%TD*%
G04 APERTURE END LIST*
D10*
%TO.P,R2,1*%
%TO.N,/L_TO_R*%
X157480000Y-91440000D03*
D11*
%TO.P,R2,2*%
%TO.N,GND*%
X172720000Y-91440000D03*
%TD*%
D10*
%TO.P,R3,1*%
%TO.N,+3.3V*%
X160020000Y-95490000D03*
D11*
%TO.P,R3,2*%
%TO.N,/MIC*%
X175260000Y-95490000D03*
%TD*%
D12*
%TO.P,MK1,1,-*%
%TO.N,GND*%
X177800000Y-101600000D03*
%TD*%
D10*
%TO.P,R1,1*%
%TO.N,+3.3V*%
X160020000Y-87390000D03*
D11*
%TO.P,R1,2*%
%TO.N,/LDR*%
X175260000Y-87390000D03*
%TD*%
D13*
%TO.P,BT1,1,+*%
%TO.N,+3.3V*%
X126410914Y-101600000D03*
D14*
%TO.P,BT1,2,-*%
%TO.N,Net-(BT1--)*%
X146410914Y-101600000D03*
%TD*%
D15*
%TO.P,SW1,*%
%TO.N,*%
X147760000Y-119380000D03*
X155960000Y-119380000D03*
D16*
%TO.P,SW1,1,A*%
%TO.N,unconnected-(SW1-A-Pad1)*%
X149860000Y-119380000D03*
D17*
%TO.P,SW1,2,B*%
%TO.N,GND*%
X151860000Y-119380000D03*
%TO.P,SW1,3,C*%
%TO.N,Net-(BT1--)*%
X153860000Y-119380000D03*
%TD*%
D18*
%TO.P,D1,1,K*%
%TO.N,/L_TO_R*%
X160020000Y-101600000D03*
D19*
%TO.P,D1,2,A*%
%TO.N,/LED*%
X160020000Y-104140000D03*
%TD*%
D20*
%TO.P,R4,2*%
%TO.N,GND*%
X170180000Y-104140000D03*
%TO.P,R4,1*%
%TO.N,/LDR*%
X170180000Y-100740000D03*
%TD*%
D21*
%TO.P,U1,1,~{RESET}/PB5*%
%TO.N,unconnected-(U1-~{RESET}{slash}PB5-Pad1)*%
X164220914Y-118100000D03*
D11*
%TO.P,U1,2,XTAL1/PB3*%
%TO.N,/MIC*%
X166760914Y-118100000D03*
%TO.P,U1,3,XTAL2/PB4*%
%TO.N,unconnected-(U1-XTAL2{slash}PB4-Pad3)*%
X169300914Y-118100000D03*
%TO.P,U1,4,GND*%
%TO.N,GND*%
X171840914Y-118100000D03*
%TO.P,U1,5,AREF/PB0*%
%TO.N,unconnected-(U1-AREF{slash}PB0-Pad5)*%
X171840914Y-110480000D03*
%TO.P,U1,6,PB1*%
%TO.N,/LED*%
X169300914Y-110480000D03*
%TO.P,U1,7,PB2*%
%TO.N,/LDR*%
X166760914Y-110480000D03*
%TO.P,U1,8,VCC*%
%TO.N,+3.3V*%
X164220914Y-110480000D03*
%TD*%
D22*
%TO.N,+3.3V*%
X132520914Y-95490000D02*
X154940000Y-95490000D01*
X164220914Y-110480000D02*
X164220914Y-99690914D01*
X164220914Y-99690914D02*
X160020000Y-95490000D01*
X160020000Y-87390000D02*
X156450000Y-87390000D01*
X126410914Y-101600000D02*
X132520914Y-95490000D01*
X154940000Y-95490000D02*
X160020000Y-95490000D01*
X156450000Y-87390000D02*
X154940000Y-88900000D01*
X154940000Y-88900000D02*
X154940000Y-95490000D01*
D23*
%TO.N,Net-(BT1--)*%
X153860000Y-119380000D02*
X153860000Y-109049086D01*
X153860000Y-109049086D02*
X146410914Y-101600000D01*
D22*
%TO.N,GND*%
X151860000Y-123920000D02*
X152400000Y-124460000D01*
X177800000Y-93980000D02*
X177800000Y-101600000D01*
X175260000Y-91440000D02*
X177800000Y-93980000D01*
X151860000Y-119380000D02*
X151860000Y-123920000D01*
X152400000Y-124460000D02*
X165480914Y-124460000D01*
X165480914Y-124460000D02*
X171840914Y-118100000D01*
D23*
%TO.N,/LDR*%
X166760914Y-110480000D02*
X166760914Y-104159086D01*
X172720000Y-98200000D02*
X170180000Y-100740000D01*
X166760914Y-104159086D02*
X170180000Y-100740000D01*
X172720000Y-89930000D02*
X172720000Y-98200000D01*
X175260000Y-87390000D02*
X172720000Y-89930000D01*
%TO.N,/MIC*%
X166760914Y-118100000D02*
X166760914Y-115179086D01*
X166760914Y-115179086D02*
X167640000Y-114300000D01*
X175260000Y-111760000D02*
X175260000Y-95490000D01*
X167640000Y-114300000D02*
X172720000Y-114300000D01*
X172720000Y-114300000D02*
X175260000Y-111760000D01*
%TD*%
M02*
